<?xml version="1.0" standalone="no"?>
<!DOCTYPE svg PUBLIC "-//W3C//DTD SVG 20010904//EN"
 "http://www.w3.org/TR/2001/REC-SVG-20010904/DTD/svg10.dtd">
<svg version="1.0" xmlns="http://www.w3.org/2000/svg"
 width="1170.000000pt" height="1170.000000pt" viewBox="0 0 1170.000000 1170.000000"
 preserveAspectRatio="xMidYMid meet">
<metadata>
Created by potrace 1.16, written by Peter Selinger 2001-2019
</metadata>
<g transform="translate(0.000000,1170.000000) scale(0.100000,-0.100000)"
fill="#000000" stroke="none">
<path d="M8143 9590 c-58 -12 -159 -67 -211 -115 -84 -77 -140 -239 -125 -365
10 -92 100 -260 139 -260 6 0 14 -6 17 -12 3 -7 27 -24 53 -38 27 -14 56 -30
64 -37 15 -12 99 -31 240 -54 41 -7 119 -12 172 -11 111 2 374 34 461 57 68
18 106 20 91 5 -14 -14 -114 -48 -155 -54 -19 -2 -63 -12 -99 -21 -36 -10 -79
-17 -96 -16 -17 0 -58 -8 -89 -19 -32 -11 -73 -20 -90 -20 -18 0 -49 -7 -69
-15 -20 -9 -64 -18 -98 -21 -34 -2 -64 -6 -67 -8 -3 -2 -76 -9 -161 -16 -85
-6 -175 -16 -200 -21 -25 -6 -63 -12 -85 -14 -22 -2 -80 -10 -130 -18 -49 -8
-118 -15 -153 -16 -35 -1 -74 -6 -86 -11 -13 -4 -111 -11 -218 -14 -107 -3
-209 -11 -227 -17 -17 -6 -40 -9 -51 -6 -11 3 -104 -4 -207 -15 -204 -22 -266
-24 -388 -14 -101 8 -81 8 -218 2 -65 -3 -154 -10 -198 -17 -77 -11 -263 -8
-454 7 -144 11 -490 5 -564 -11 -14 -3 -32 -1 -40 4 -9 6 -24 5 -39 0 -27 -10
-186 -13 -290 -5 -34 3 -72 2 -83 -2 -11 -5 -46 -5 -77 -2 -31 4 -68 3 -82 -2
-14 -4 -38 -4 -55 0 -19 6 -43 4 -66 -4 -37 -13 -119 -12 -584 2 -237 7 -196
7 -425 0 -102 -3 -221 -10 -265 -15 -44 -6 -95 -8 -114 -5 -26 5 -33 4 -29 -7
3 -8 12 -13 22 -11 9 2 16 -2 16 -8 0 -6 10 -8 25 -4 18 4 32 1 45 -11 27 -24
25 -43 -5 -57 -14 -6 -25 -19 -25 -29 0 -10 -8 -24 -19 -31 -10 -7 -22 -28
-25 -45 -4 -18 -12 -35 -17 -38 -12 -8 -49 -89 -49 -108 0 -8 -6 -20 -14 -26
-8 -7 -20 -35 -26 -63 -6 -29 -15 -57 -20 -63 -5 -7 -15 -47 -21 -91 -6 -43
-16 -89 -21 -101 -6 -12 -12 -37 -13 -55 -1 -18 -4 -40 -7 -48 -8 -18 -8 -19
-14 -150 l-5 -105 66 -53 c36 -28 70 -52 75 -52 6 0 10 -4 10 -8 0 -5 11 -14
25 -20 13 -6 31 -24 39 -40 8 -15 34 -42 58 -58 24 -16 45 -33 47 -38 7 -18
54 -56 68 -56 8 0 34 -16 57 -35 24 -19 47 -35 51 -35 4 0 26 -15 49 -33 23
-19 49 -36 59 -40 9 -3 17 -11 17 -17 0 -5 6 -10 14 -10 7 0 19 -7 26 -15 7
-8 21 -15 32 -15 10 0 22 -8 26 -19 10 -26 62 -67 95 -75 16 -4 39 -17 52 -30
13 -13 26 -22 28 -19 6 5 84 -33 107 -51 8 -7 38 -21 65 -31 67 -24 217 -96
233 -112 7 -7 17 -13 22 -13 5 0 15 -3 24 -6 10 -4 16 -1 16 9 0 8 -21 27 -47
42 -27 15 -58 37 -70 48 -13 11 -23 18 -23 14 0 -4 -16 2 -35 13 -20 11 -40
20 -46 20 -6 0 -25 11 -42 24 -18 13 -43 27 -57 31 -14 4 -34 15 -45 25 -11
10 -47 32 -80 50 -33 18 -68 42 -77 54 -10 11 -18 17 -18 13 0 -5 -12 5 -26
22 -14 17 -30 31 -35 31 -5 0 -48 29 -94 65 -47 36 -92 65 -100 65 -8 0 -19 8
-24 18 -5 10 -30 28 -55 41 -25 12 -46 27 -46 32 0 5 -8 13 -17 16 -21 8 -103
92 -103 105 0 5 -11 13 -25 18 -14 5 -25 16 -25 24 0 14 -61 66 -79 66 -5 0
-18 10 -28 23 -24 29 -68 51 -88 44 -30 -12 -49 89 -21 112 16 13 27 61 27
108 -1 18 4 35 9 38 6 3 10 33 10 65 0 61 22 163 40 184 9 11 17 43 19 72 1 5
9 19 19 30 10 11 22 32 25 46 4 15 14 33 22 42 8 8 15 20 15 26 0 7 14 29 30
50 17 21 30 43 30 49 0 12 37 81 51 95 5 6 9 20 9 32 0 30 21 44 66 45 87 1
544 -10 609 -16 66 -5 415 -15 535 -16 396 0 652 4 680 11 41 11 399 15 550 6
58 -3 173 -9 255 -12 83 -3 161 -6 175 -6 63 -3 236 15 245 26 18 20 55 37 55
25 0 -5 4 -8 8 -5 5 3 18 -3 29 -13 15 -14 37 -19 99 -20 43 -1 88 -2 99 -4
16 -2 19 3 17 26 -4 31 -3 31 33 15 26 -12 34 -28 13 -28 -7 0 -5 -6 6 -12 13
-7 29 -7 57 1 22 7 44 9 50 6 17 -11 57 4 64 24 8 27 30 33 97 25 46 -5 56 -9
48 -19 -7 -8 -7 -16 -2 -19 12 -7 27 11 36 42 8 24 43 30 76 12 13 -7 34 -7
65 0 26 6 79 12 120 14 40 2 79 7 86 11 16 11 167 13 195 3 13 -4 30 -1 42 8
20 14 84 23 187 28 28 1 56 6 64 10 7 5 54 10 104 11 51 2 105 8 122 14 16 7
39 10 51 7 12 -3 36 1 54 10 20 11 46 15 71 11 21 -3 55 -1 76 4 21 5 88 11
148 14 145 8 163 10 221 30 32 11 80 17 138 18 77 0 89 2 93 18 4 14 14 17 45
16 39 -1 40 -2 19 -17 -126 -88 -371 -327 -456 -445 -11 -15 -25 -32 -31 -39
-43 -45 -214 -338 -214 -366 0 -6 -9 -23 -19 -38 -11 -15 -22 -49 -26 -77 -4
-27 -14 -63 -22 -79 -48 -93 -64 -417 -30 -620 10 -55 17 -107 17 -116 0 -9
-23 -32 -51 -51 -70 -47 -71 -47 -100 -53 -14 -3 -39 -16 -54 -28 -16 -12 -38
-24 -49 -25 -46 -6 -66 -14 -93 -37 -15 -13 -45 -29 -65 -35 -20 -7 -53 -23
-73 -37 -20 -13 -53 -33 -73 -43 -20 -11 -46 -28 -57 -38 -11 -10 -58 -36
-103 -58 -46 -22 -88 -48 -94 -58 -5 -10 -20 -22 -34 -27 -13 -5 -24 -14 -24
-20 0 -13 47 -13 55 0 4 6 28 21 55 35 26 13 54 30 61 37 8 7 34 22 58 33 25
11 68 38 97 61 29 22 72 48 96 58 24 10 70 31 103 46 33 16 71 31 85 34 14 3
55 26 93 51 37 25 75 45 85 45 9 0 28 9 42 20 27 21 60 26 60 10 0 -5 1 -13 2
-17 92 -394 85 -529 -40 -738 -58 -98 -157 -209 -224 -251 -40 -25 -47 -49
-26 -83 16 -26 -16 -192 -49 -253 -40 -73 -47 -76 -93 -39 -21 17 -43 31 -49
31 -5 0 -26 15 -46 34 -20 19 -41 37 -48 40 -7 4 -25 15 -42 26 -29 19 -56 33
-100 50 -11 4 -45 27 -75 51 -128 102 -220 150 -188 99 7 -11 18 -20 25 -20 6
0 18 -8 25 -18 7 -10 20 -22 28 -26 37 -17 61 -34 92 -65 18 -18 45 -38 61
-43 15 -6 27 -14 27 -19 0 -5 7 -9 15 -9 8 0 20 -9 27 -20 7 -11 17 -20 23
-21 5 0 37 -20 70 -45 33 -24 90 -64 126 -89 36 -24 74 -54 84 -65 10 -11 24
-20 32 -20 7 0 16 -7 19 -15 4 -8 10 -15 15 -15 6 0 29 -18 51 -40 23 -22 49
-40 58 -40 8 0 44 -27 80 -60 35 -33 71 -60 80 -60 8 0 37 -18 64 -40 27 -22
65 -48 85 -57 20 -9 43 -22 52 -30 9 -7 49 -30 90 -51 41 -21 93 -50 116 -65
24 -15 48 -27 54 -27 7 0 27 -11 45 -25 18 -14 36 -25 39 -25 4 0 24 -13 44
-28 20 -15 49 -33 65 -40 34 -15 163 -120 170 -139 3 -7 12 -13 20 -13 22 0
66 -58 66 -88 0 -15 11 -45 25 -67 13 -22 25 -50 25 -63 0 -28 16 -61 41 -85
11 -10 22 -36 25 -58 4 -23 24 -67 45 -98 21 -31 42 -76 48 -100 5 -23 16 -50
23 -59 8 -9 20 -32 28 -49 13 -35 17 -38 38 -24 11 7 11 17 -4 60 -10 28 -22
51 -26 51 -4 0 -15 14 -24 31 -8 17 -11 28 -4 24 20 -12 -17 63 -44 90 -17 17
-26 37 -26 59 0 17 -7 41 -15 52 -8 10 -15 32 -15 47 0 15 -9 45 -20 67 -11
22 -20 47 -20 57 0 53 -152 253 -193 253 -11 0 -40 20 -64 45 -24 25 -63 54
-88 66 -24 11 -49 27 -56 35 -6 8 -17 14 -24 14 -7 0 -41 19 -77 43 -103 67
-195 117 -218 117 -5 0 -10 5 -10 10 0 6 -6 10 -14 10 -8 0 -34 15 -58 33 -24
17 -56 39 -73 47 -16 8 -38 24 -47 35 -10 11 -17 17 -18 12 0 -4 -22 9 -50 28
-27 19 -52 35 -55 35 -3 0 -26 22 -51 49 -26 28 -61 55 -78 62 -17 7 -35 19
-39 26 -4 7 -13 13 -20 13 -11 1 -67 44 -67 53 0 2 40 44 88 93 79 80 222 276
222 304 0 6 14 41 31 78 77 164 113 380 103 614 -10 222 -7 417 6 433 6 8 26
17 43 21 38 8 123 49 132 64 3 5 16 10 29 10 12 0 38 12 57 26 19 14 77 46
129 70 52 25 103 49 113 55 42 22 55 28 99 44 26 9 63 29 84 46 20 16 44 29
53 29 9 0 33 12 54 26 21 14 54 32 72 40 22 9 37 23 41 39 4 15 13 25 24 25
14 0 19 12 25 57 4 33 24 93 47 142 23 49 42 108 45 136 3 28 10 53 15 56 6 4
8 16 5 28 -3 12 -2 23 3 26 4 2 10 24 13 47 4 24 20 69 36 100 17 32 28 65 25
73 -7 17 14 114 27 131 5 6 8 20 7 30 -3 21 17 100 32 126 5 9 7 49 4 90 -3
51 0 88 12 124 18 59 17 78 -6 64 -9 -6 -15 -25 -15 -54 0 -25 -3 -46 -7 -46
-5 0 -8 -9 -8 -20 0 -11 -4 -20 -8 -20 -5 0 -14 -39 -20 -86 -6 -48 -17 -96
-25 -108 -7 -11 -19 -41 -26 -66 -7 -25 -20 -58 -29 -75 -9 -16 -15 -34 -13
-40 4 -14 -20 -137 -32 -160 -5 -11 -15 -23 -20 -27 -6 -3 -12 -21 -14 -39 -2
-18 -8 -38 -13 -44 -6 -7 -17 -59 -25 -115 -8 -57 -18 -106 -23 -109 -5 -3
-12 -18 -15 -33 -4 -15 -14 -34 -23 -42 -8 -9 -13 -20 -10 -25 3 -5 -2 -26
-13 -48 -10 -21 -22 -51 -27 -67 -7 -22 -22 -33 -64 -51 -30 -12 -86 -41 -125
-64 -38 -22 -107 -59 -152 -81 -45 -22 -85 -45 -88 -50 -3 -5 -24 -14 -46 -20
-22 -6 -49 -20 -60 -31 -10 -10 -32 -19 -47 -19 -18 0 -38 -11 -57 -30 -16
-16 -34 -30 -41 -30 -13 0 -96 -34 -136 -56 -46 -25 -51 -20 -43 49 17 159 79
469 101 502 7 11 21 49 30 85 9 36 23 74 30 85 8 11 14 28 14 38 0 10 7 31 14
45 8 15 40 79 71 142 30 63 72 140 93 171 20 31 50 76 66 100 16 24 54 73 85
109 31 36 61 70 66 77 77 94 211 229 330 330 25 21 106 65 125 68 3 0 33 7 68
14 60 13 64 13 85 -7 28 -26 54 -11 53 33 -1 28 1 30 49 36 28 3 64 9 81 13
29 7 30 6 43 -45 8 -28 20 -63 27 -78 8 -14 14 -31 14 -37 0 -6 11 -47 25 -90
65 -203 91 -307 135 -532 42 -218 69 -468 64 -607 -8 -288 -24 -432 -69 -655
-8 -41 -20 -102 -26 -135 -6 -33 -19 -83 -30 -112 -19 -54 -43 -161 -84 -374
-13 -69 -31 -143 -39 -165 -8 -21 -26 -84 -40 -139 -36 -148 -51 -177 -71
-145 -3 6 -2 10 4 10 6 0 14 12 17 28 4 15 11 32 16 39 6 7 5 20 -2 33 -9 17
-9 37 0 84 6 34 10 66 9 71 -3 13 12 67 22 81 5 6 3 18 -4 29 -11 14 -11 26 0
69 21 78 23 100 14 199 -5 51 -5 97 -1 102 4 6 7 38 6 73 -1 35 2 66 6 68 5 3
6 14 3 25 -4 10 -3 24 2 31 6 10 15 166 14 243 -4 224 -2 284 8 302 6 12 8 29
5 37 -4 9 -2 22 4 29 7 8 9 47 6 102 -11 204 -11 250 -4 260 5 6 7 37 6 70 -2
33 -1 64 2 70 14 23 10 101 -8 158 -11 34 -17 71 -14 83 3 12 1 32 -6 43 -6
12 -7 21 -2 21 5 0 12 24 15 53 3 38 -1 69 -18 117 -15 43 -22 86 -21 128 1
35 -2 66 -5 68 -4 2 -10 23 -14 47 -9 54 -14 61 -31 46 -20 -17 -5 -180 21
-224 12 -20 14 -102 3 -120 -14 -24 14 -278 34 -302 6 -7 5 -19 -2 -33 -10
-18 -23 -154 -21 -220 3 -136 1 -311 -3 -319 -4 -5 -4 -39 -2 -74 3 -36 2 -68
-2 -72 -8 -8 -10 -23 -15 -170 -3 -62 -1 -115 5 -122 6 -8 5 -19 -2 -33 -6
-12 -12 -64 -14 -115 -1 -52 -4 -97 -8 -100 -4 -4 -4 -21 -1 -38 2 -18 0 -92
-6 -166 -7 -97 -7 -138 1 -151 9 -13 9 -22 1 -32 -6 -7 -12 -33 -14 -58 -1
-25 -6 -53 -11 -62 -5 -10 -11 -50 -14 -90 -7 -109 -24 -232 -34 -243 -11 -14
-31 -135 -24 -146 3 -5 2 -15 -3 -21 -4 -7 -9 -44 -10 -83 -4 -111 -11 -177
-23 -225 -6 -25 -13 -65 -15 -90 -3 -25 -12 -85 -21 -135 -8 -49 -15 -100 -15
-113 1 -13 -5 -33 -11 -45 -16 -28 -18 -41 -23 -160 -2 -55 -8 -104 -14 -110
-24 -29 -31 -190 -16 -342 2 -22 6 -65 8 -95 3 -30 13 -75 22 -100 9 -25 18
-63 19 -85 2 -22 11 -67 20 -100 10 -33 17 -68 17 -77 0 -17 16 -26 57 -34 27
-5 29 15 6 52 -10 15 -17 49 -19 88 -1 45 -8 75 -23 100 -12 21 -22 51 -22 67
0 16 -9 42 -20 57 -18 24 -19 35 -12 88 4 33 7 104 5 158 -1 58 2 107 9 119
12 23 32 164 30 217 0 19 4 40 9 47 6 7 8 17 4 23 -3 5 -1 10 6 10 8 0 9 -10
5 -30 -3 -17 -1 -64 4 -104 6 -40 12 -88 14 -107 5 -48 41 -209 55 -242 17
-42 44 -32 53 20 14 85 93 192 159 215 44 15 55 43 30 75 -12 14 -21 30 -21
35 0 6 -7 24 -15 41 -18 40 -54 166 -66 232 -36 195 -46 385 -31 580 10 133
15 150 110 440 53 161 64 189 87 245 13 30 29 75 35 100 7 25 16 50 20 55 5 6
13 29 19 50 5 22 19 65 31 95 12 30 28 79 35 108 7 29 18 58 23 65 5 7 17 46
27 87 9 41 28 104 41 140 13 36 38 144 55 240 29 165 30 184 24 345 -7 188
-10 240 -18 270 -2 11 -8 43 -12 70 -6 43 -19 96 -54 230 -25 90 -44 151 -52
160 -5 5 -9 15 -9 23 0 25 -106 253 -190 411 -27 52 -50 98 -50 103 0 15 37 8
63 -12 14 -11 28 -20 31 -20 4 0 62 -26 129 -59 178 -85 235 -111 245 -111 5
0 35 -11 67 -25 75 -34 286 -76 402 -81 100 -5 202 12 293 48 63 24 177 119
191 157 5 14 18 42 28 61 18 32 45 196 35 211 -2 4 -6 24 -9 45 -19 155 -97
256 -238 311 -66 26 -83 28 -197 28 -97 -1 -141 -6 -195 -22 -112 -33 -214
-71 -303 -114 -46 -21 -86 -39 -89 -39 -2 0 -23 -8 -46 -19 -199 -89 -425
-171 -469 -171 -13 1 -39 14 -58 30 -40 35 -77 38 -134 11 -34 -16 -42 -17
-65 -5 -14 8 -32 14 -38 14 -7 0 -13 4 -13 8 0 5 -28 23 -62 41 -35 19 -70 40
-79 47 -8 8 -19 14 -22 14 -4 0 -82 55 -175 123 -145 107 -262 189 -352 247
-55 35 -178 91 -230 105 -60 16 -140 18 -207 5z m227 -67 c62 -17 86 -28 184
-85 66 -39 71 -42 113 -75 22 -18 44 -33 48 -33 3 0 45 -30 93 -67 47 -38 94
-72 103 -78 10 -5 69 -44 131 -86 62 -42 129 -85 148 -96 19 -11 57 -32 83
-47 135 -77 -75 -30 -231 52 -24 12 -49 22 -57 22 -7 0 -15 4 -17 8 -1 5 -37
25 -78 46 -79 40 -150 81 -265 156 -134 86 -304 171 -396 199 -67 21 -181 23
-239 6 -25 -8 -25 -8 -7 13 20 22 113 70 162 83 40 10 156 1 225 -18z m-175
-128 c68 -16 171 -57 188 -74 6 -6 16 -11 23 -11 6 0 22 -8 35 -19 22 -17 99
-61 172 -99 16 -8 61 -36 100 -63 39 -27 76 -49 83 -49 7 0 30 -11 50 -25 50
-34 248 -129 304 -146 101 -31 28 -57 -205 -74 -49 -4 -94 -9 -98 -12 -5 -3
-84 -5 -175 -4 -159 0 -297 17 -326 40 -6 4 -33 14 -61 21 -27 7 -92 34 -143
58 -120 58 -230 160 -256 239 -24 73 -14 126 36 174 59 57 155 73 273 44z
m2608 -140 c33 -7 67 -21 76 -29 10 -9 24 -16 32 -16 16 0 96 -76 88 -84 -2
-2 -29 3 -59 11 -33 9 -100 16 -165 17 -123 1 -106 5 -460 -109 -258 -83 -331
-105 -351 -105 -8 0 -22 -4 -32 -9 -22 -11 -134 -33 -192 -37 -25 -2 -69 -7
-97 -12 -42 -7 -53 -6 -53 4 0 8 30 22 73 34 124 35 178 55 312 115 366 164
500 212 640 228 67 8 133 6 188 -8z m-2873 -225 c25 -25 58 -54 73 -65 61 -45
236 -135 262 -135 9 0 24 -4 33 -9 31 -17 176 -43 244 -45 65 -2 88 -9 75 -23
-13 -13 -311 -4 -368 11 -141 37 -209 69 -284 135 -55 48 -79 86 -99 153 -20
71 -20 78 2 48 9 -13 37 -45 62 -70z m3006 49 c65 -21 96 -46 114 -94 40 -103
-28 -215 -173 -285 -166 -80 -442 -106 -642 -61 -22 5 -92 20 -155 34 -111 25
-204 57 -282 98 -20 10 -45 19 -54 19 -19 0 -54 28 -54 42 0 5 9 6 20 3 11 -3
35 -2 52 4 18 5 69 17 113 27 110 23 306 74 325 84 16 8 236 83 350 119 36 11
87 22 114 25 27 3 51 8 53 10 10 10 166 -7 219 -25z m-1439 -141 c29 -33 33
-53 18 -75 -17 -25 -69 -47 -90 -39 -22 8 -53 65 -48 87 13 48 86 64 120 27z
m-417 -158 c0 -5 -5 -10 -11 -10 -5 0 -7 5 -4 10 3 6 8 10 11 10 2 0 4 -4 4
-10z m618 -242 c55 -112 111 -230 125 -263 23 -55 71 -201 82 -250 2 -11 9
-36 15 -55 65 -207 74 -596 19 -850 -11 -52 -31 -147 -45 -212 -13 -64 -33
-136 -44 -160 -11 -23 -20 -50 -20 -58 0 -8 -11 -42 -23 -75 -28 -70 -71 -201
-87 -264 -8 -32 -14 -41 -22 -33 -8 8 -8 22 0 49 15 53 98 406 111 473 36 187
51 655 26 853 -36 292 -116 654 -194 880 -17 48 -31 95 -31 103 0 8 -7 26 -16
39 -9 14 -12 25 -6 25 6 0 55 -91 110 -202z m1342 191 c0 -29 -102 -137 -151
-160 -133 -63 -180 -70 -367 -56 -113 8 -210 30 -260 57 -42 23 -50 23 84 0
187 -32 528 40 639 135 42 36 55 42 55 24z m-2078 -91 c-6 -7 -66 -70 -134
-139 -126 -129 -177 -187 -243 -274 -21 -27 -44 -54 -52 -58 -7 -4 -13 -12
-13 -17 0 -6 -22 -41 -50 -80 -27 -39 -50 -73 -50 -78 0 -4 -13 -26 -29 -49
-16 -23 -47 -86 -70 -140 -23 -54 -47 -106 -52 -117 -6 -10 -18 -42 -26 -70
-8 -28 -20 -60 -27 -71 -7 -11 -21 -56 -31 -100 -9 -44 -23 -91 -30 -105 -7
-14 -20 -68 -29 -120 -10 -52 -22 -114 -27 -137 -5 -23 -9 -77 -9 -121 0 -52
-5 -85 -14 -98 -15 -20 -28 -15 -33 14 -22 125 -35 245 -33 322 2 145 41 373
74 438 7 15 16 43 20 62 3 19 18 52 31 72 14 21 25 44 25 51 0 7 5 18 11 24 6
6 16 20 23 32 41 74 80 137 91 148 7 7 23 29 36 50 13 21 26 40 29 43 3 3 32
37 63 77 85 108 241 262 308 305 14 9 32 23 40 30 58 56 240 152 201 106z
m-931 -2731 c-37 -113 -115 -267 -180 -355 -75 -101 -86 -108 -75 -51 4 24 8
79 9 121 l0 77 58 52 c56 49 167 180 167 195 0 10 34 42 40 37 2 -2 -6 -36
-19 -76z m1416 -289 c-3 -7 -5 -2 -5 12 0 14 2 19 5 13 2 -7 2 -19 0 -25z
m-10 -50 c-3 -8 -6 -5 -6 6 -1 11 2 17 5 13 3 -3 4 -12 1 -19z m28 -323 c2
-81 9 -161 14 -179 5 -17 15 -65 21 -106 6 -41 15 -88 20 -105 6 -16 19 -59
31 -95 11 -35 27 -76 35 -92 16 -30 19 -68 5 -68 -19 0 -113 -94 -132 -133
-11 -21 -24 -35 -29 -31 -4 5 -16 61 -26 124 -25 161 -25 559 0 675 19 84 46
168 53 161 2 -2 6 -70 8 -151z"/>
<path d="M9445 8618 c2 -73 11 -108 29 -108 21 0 27 55 11 94 -8 20 -15 45
-15 56 0 11 -6 20 -13 20 -9 0 -13 -17 -12 -62z"/>
<path d="M7380 8390 c-13 -8 -13 -10 2 -10 9 0 20 5 23 10 8 13 -5 13 -25 0z"/>
<path d="M4100 8184 c-50 -21 -70 -51 -70 -106 0 -26 5 -50 11 -53 7 -5 8 5 3
29 -4 22 -1 48 6 65 14 35 71 65 106 57 32 -8 32 -36 0 -36 -59 0 -76 -92 -26
-142 18 -17 27 -35 23 -41 -4 -7 -6 -21 -4 -31 2 -15 -3 -13 -23 11 -33 39
-84 62 -96 43 -11 -18 -3 -31 15 -23 31 11 65 -7 86 -48 13 -27 17 -45 11 -51
-7 -7 -14 -3 -21 11 -9 15 -21 21 -46 21 -26 0 -45 9 -74 35 -21 19 -45 35
-53 35 -8 0 -19 5 -24 10 -14 14 -42 3 -49 -19 -3 -9 -1 -32 5 -50 6 -22 6
-40 0 -52 -13 -23 -4 -44 26 -63 13 -9 21 -22 18 -30 -3 -8 -1 -17 5 -21 7 -4
11 5 11 24 0 24 4 31 19 31 19 0 19 -2 5 -35 -19 -46 -19 -45 21 -45 24 0 37
-6 45 -19 14 -27 13 -34 -5 -27 -8 3 -15 1 -15 -3 0 -11 25 -21 55 -21 13 0
27 -4 30 -10 8 -13 62 -13 69 -1 7 11 8 37 2 124 -6 79 2 83 69 38 53 -36 119
-58 215 -71 51 -7 76 -7 78 0 2 5 10 10 18 10 18 0 18 9 -3 32 -9 10 -11 18
-5 18 6 0 14 -5 17 -10 3 -6 22 -18 41 -28 l35 -18 -38 -27 c-21 -15 -32 -27
-25 -27 7 0 26 9 41 21 33 24 127 49 188 49 l41 0 -3 -55 c-2 -31 -9 -71 -15
-91 -7 -19 -10 -38 -7 -40 9 -9 65 25 81 48 20 29 20 82 0 102 -20 21 -24 20
-24 -4 0 -11 6 -19 13 -17 18 3 12 -61 -9 -84 -23 -25 -37 -24 -28 3 3 12 6
43 5 69 -1 63 14 74 70 54 88 -33 133 -45 162 -45 22 0 43 -12 78 -45 55 -51
125 -85 172 -84 18 0 25 3 17 6 -8 3 -39 14 -68 25 -29 11 -50 23 -47 28 3 5
-14 20 -38 34 -56 33 -102 112 -93 159 9 44 36 73 88 96 23 11 35 20 25 20
-25 1 -56 -16 -96 -53 -31 -27 -33 -28 -19 -6 19 32 85 70 120 70 15 0 39 -5
55 -10 l28 -10 -25 21 c-18 16 -34 20 -61 16 -92 -12 -149 -67 -149 -144 l0
-41 -39 5 c-22 3 -52 1 -68 -4 -18 -6 -60 -6 -115 0 -68 8 -101 7 -145 -4 -72
-17 -88 -15 -130 17 -27 21 -35 23 -47 12 -12 -11 -12 -15 1 -30 15 -17 14
-18 -18 -18 -46 0 -163 32 -222 60 -46 22 -91 66 -118 117 -12 22 -11 27 4 38
22 16 22 31 -2 38 -16 4 -19 12 -16 58 5 76 6 79 27 79 26 0 23 35 -4 54 -27
19 -33 19 -78 0z m39 -85 c-6 -12 -8 -36 -4 -56 4 -24 3 -33 -4 -28 -15 9 -14
78 1 93 18 18 20 15 7 -9z m-219 -167 c0 -15 5 -33 12 -40 9 -9 9 -17 -1 -36
-8 -13 -10 -33 -6 -46 8 -27 -12 -24 -29 4 -9 13 -7 20 7 30 16 12 16 16 2 42
-16 31 -19 57 -8 67 14 14 23 6 23 -21z m73 -17 c28 -25 29 -45 1 -45 -17 0
-64 44 -64 60 0 18 34 10 63 -15z m57 -60 c0 -8 -4 -15 -10 -15 -5 0 -10 7
-10 15 0 8 5 15 10 15 6 0 10 -7 10 -15z m60 -2 c0 -9 9 -26 20 -38 14 -15 18
-28 12 -48 l-7 -27 -33 20 c-32 20 -42 53 -26 94 8 21 34 20 34 -1z m90 -21
c-20 -7 -40 7 -34 23 6 14 9 14 26 -2 12 -10 15 -19 8 -21z m-184 7 c19 -11
34 -29 34 -39 0 -10 7 -25 15 -34 8 -8 15 -17 15 -20 0 -3 -7 -6 -15 -6 -8 0
-15 6 -15 14 0 8 -9 18 -20 21 -24 8 -26 23 -4 32 12 4 13 8 3 14 -7 4 -21 3
-30 -2 -26 -14 -49 -11 -56 7 -6 15 11 34 31 34 5 0 24 -9 42 -21z m12 -90 c4
-21 -26 -33 -44 -18 -7 6 -10 17 -7 25 7 20 47 14 51 -7z m1031 -6 c29 -17 47
-41 37 -50 -8 -9 -61 7 -96 28 -26 16 -30 23 -19 30 21 13 44 11 78 -8z m-962
-17 c-7 -17 11 -36 33 -36 12 1 12 2 -2 11 -22 12 -23 28 -3 25 27 -4 34 -20
25 -56 -5 -24 -8 -28 -9 -12 -1 27 -21 30 -21 2 0 -11 -4 -20 -10 -20 -5 0 -7
7 -4 15 4 10 -1 13 -23 12 -24 -2 -28 2 -31 26 -3 21 2 29 20 36 31 13 31 13
25 -3z"/>
<path d="M7516 8177 c-26 -19 -17 -51 16 -55 45 -5 68 -59 42 -102 -14 -24
-14 -23 -8 21 4 32 2 48 -8 57 -12 9 -14 2 -10 -48 4 -50 2 -60 -11 -60 -25 0
-32 -22 -11 -37 18 -13 18 -14 -1 -50 -34 -63 -78 -98 -156 -127 -69 -24 -189
-49 -198 -40 -2 2 2 10 9 19 7 9 10 19 6 23 -4 4 -17 -4 -28 -18 -19 -23 -19
-25 -2 -37 38 -28 196 0 287 51 98 55 101 54 93 -53 -7 -85 -6 -90 14 -101 17
-9 26 -8 46 5 14 9 32 14 41 11 18 -7 53 10 53 27 0 8 -4 7 -10 -3 -13 -21
-21 -8 -12 21 6 20 14 24 44 25 41 1 68 18 68 42 0 9 12 28 26 44 25 25 26 29
12 49 -13 20 -13 26 0 51 18 37 9 78 -19 78 -25 0 -99 -37 -99 -50 0 -16 -56
-39 -80 -33 -17 4 -27 0 -41 -18 -25 -34 -34 -17 -13 26 21 46 56 69 89 61 28
-7 33 5 10 24 -10 9 -15 9 -15 1 0 -6 -9 -11 -21 -11 -12 0 -35 -15 -52 -32
-17 -18 -28 -26 -25 -17 4 9 2 22 -3 30 -6 10 0 20 17 34 19 15 27 33 31 66 5
41 2 48 -22 67 -15 12 -34 22 -42 22 -32 0 -4 25 30 28 31 3 43 -2 68 -28 29
-28 31 -35 27 -80 -3 -27 -1 -47 4 -44 14 9 9 98 -8 122 -32 45 -102 65 -138
39z m294 -250 c0 -12 -7 -33 -17 -46 -15 -22 -15 -25 0 -36 22 -16 21 -28 -3
-50 -20 -18 -20 -18 -14 13 4 20 2 38 -6 47 -10 12 -10 19 -2 27 7 7 12 25 12
40 0 18 5 28 15 28 9 0 15 -9 15 -23z m-46 4 c10 -16 -5 -40 -35 -55 -43 -21
-51 5 -12 38 31 28 39 31 47 17z m-248 -102 c-29 -8 -32 -2 -10 22 17 19 19
19 25 2 4 -13 0 -20 -15 -24z m108 25 c8 -21 7 -67 -2 -80 -7 -11 -45 -34 -56
-34 -13 0 -4 52 15 90 23 43 33 49 43 24z m51 5 c10 -15 -1 -23 -20 -15 -9 3
-13 10 -10 16 8 13 22 13 30 -1z m85 -28 c0 -24 -25 -34 -50 -21 -29 16 -45
13 -30 -5 11 -13 8 -19 -14 -40 -36 -33 -53 -32 -27 1 12 15 21 34 21 43 0 19
34 38 73 40 20 1 27 -4 27 -18z m1 -68 c5 -15 3 -25 -7 -33 -11 -10 -14 -9
-14 8 0 12 -5 24 -10 27 -13 8 -2 27 12 23 6 -2 15 -14 19 -25z m-41 -8 c19
-22 -5 -48 -31 -34 -30 15 -22 44 12 48 4 1 12 -6 19 -14z m-72 -64 c-2 -20
-9 -27 -31 -29 -15 -2 -25 -7 -22 -12 3 -5 1 -11 -5 -15 -6 -3 -10 4 -10 16 0
22 0 22 -15 3 -13 -18 -14 -16 -15 24 0 35 3 42 20 42 11 0 20 -4 20 -10 0 -5
-7 -10 -16 -10 -8 0 -13 -4 -9 -10 8 -14 32 -1 38 20 3 14 11 17 26 13 17 -4
21 -12 19 -32z"/>
<path d="M4066 8094 c-10 -26 -7 -69 7 -87 10 -15 12 -8 12 43 0 59 -7 75 -19
44z"/>
<path d="M7619 8078 c4 -18 4 -46 0 -62 -11 -39 -3 -47 11 -12 11 31 12 51 4
84 -10 35 -23 26 -15 -10z"/>
<path d="M4455 8091 c-6 -5 -23 -11 -40 -13 -23 -2 -31 -9 -33 -28 -2 -14 -9
-32 -16 -40 -7 -8 -19 -30 -26 -49 -13 -31 -12 -35 8 -52 12 -9 22 -22 22 -28
0 -6 19 -23 42 -37 37 -24 46 -25 83 -17 34 8 44 7 52 -5 7 -11 18 -13 46 -8
20 4 37 11 37 16 0 4 13 11 29 15 42 9 49 23 42 80 -5 39 -11 52 -28 60 -16 7
-23 20 -25 44 -3 31 -7 36 -35 42 -18 3 -40 12 -48 19 -12 10 -18 10 -32 -1
-13 -11 -17 -11 -20 -1 -5 14 -45 16 -58 3z m49 -50 c-4 -18 0 -32 10 -40 14
-12 16 -10 16 17 0 38 16 50 62 45 43 -6 55 -26 33 -59 -21 -32 -19 -35 11
-28 17 4 29 2 35 -7 11 -18 12 -96 1 -103 -16 -10 -53 6 -48 20 3 8 0 14 -7
15 -9 0 -9 2 1 6 6 2 12 9 12 14 0 4 -6 6 -13 3 -8 -3 -28 12 -45 32 -18 21
-32 32 -32 26 0 -20 -40 -14 -41 6 0 12 -2 13 -6 3 -4 -11 -10 -8 -24 10 -10
13 -19 19 -19 12 0 -6 5 -15 10 -18 35 -22 -25 -63 -63 -44 -18 9 -17 6 6 -15
15 -15 27 -35 27 -45 0 -10 10 -25 23 -34 12 -8 19 -18 16 -21 -7 -8 -69 25
-69 37 0 4 -12 19 -27 33 -26 24 -26 25 -9 60 16 35 17 36 36 19 26 -23 33
-15 20 19 -16 42 -13 50 28 67 45 19 64 9 56 -30z m60 -112 c32 -25 33 -43 4
-63 -37 -26 -81 -20 -106 14 -27 35 -27 46 -4 59 28 17 78 12 106 -10z m46
-84 c-14 -16 -40 -20 -40 -6 0 10 17 19 39 20 11 1 11 -2 1 -14z"/>
<path d="M7195 8086 c-14 -10 -24 -11 -33 -4 -9 8 -19 8 -35 0 -12 -6 -34 -13
-49 -16 -24 -6 -28 -11 -28 -41 0 -25 -5 -35 -20 -40 -21 -7 -28 -26 -32 -90
-3 -37 -1 -40 30 -50 17 -6 37 -16 44 -23 17 -17 77 -15 84 2 5 13 11 13 46 0
37 -13 42 -12 79 9 21 12 39 27 39 33 0 6 11 20 25 32 14 12 25 26 25 31 0 16
-24 65 -37 76 -6 6 -13 21 -15 33 -2 17 -14 28 -38 37 -19 7 -42 15 -50 19 -9
3 -24 0 -35 -8z m59 -23 c38 -19 44 -38 21 -69 -8 -10 -15 -22 -15 -26 0 -10
33 3 41 15 12 17 36 0 43 -29 6 -22 3 -32 -13 -45 -12 -10 -21 -22 -21 -27 0
-10 -64 -52 -78 -52 -4 1 3 9 16 20 12 10 25 32 28 49 4 17 12 31 20 31 7 0
16 5 19 10 4 7 -2 9 -18 5 -14 -4 -35 -2 -46 5 -17 9 -19 15 -11 30 5 10 10
25 10 32 -1 7 -8 1 -16 -14 -8 -16 -17 -28 -20 -28 -3 0 -2 5 1 10 3 6 1 10
-4 10 -6 0 -11 -7 -11 -15 0 -17 -21 -20 -37 -4 -7 7 -17 2 -32 -20 -13 -17
-31 -31 -41 -31 -14 0 -17 -5 -13 -21 6 -23 -10 -39 -39 -39 -15 0 -18 9 -18
50 0 40 4 51 21 60 15 9 24 8 35 -1 20 -17 19 9 -2 32 -24 27 -5 51 45 55 36
3 43 1 50 -18 5 -13 6 -29 4 -35 -3 -7 -1 -13 5 -13 13 0 22 25 22 61 0 34 7
35 54 12z m-2 -136 c12 -19 10 -24 -20 -58 -27 -30 -29 -31 -70 -19 -24 6 -46
18 -49 26 -6 17 22 52 52 65 25 11 76 3 87 -14z m-126 -95 c-24 -5 -49 6 -41
18 3 6 16 5 32 -3 21 -9 23 -13 9 -15z"/>
<path d="M6443 7939 c-18 -5 -35 -14 -38 -19 -8 -13 8 -13 39 1 18 8 32 8 53
0 l28 -11 -27 5 c-16 3 -28 1 -28 -5 0 -5 6 -10 13 -10 6 0 23 -3 36 -7 17 -4
22 -3 17 6 -5 8 -1 8 16 0 13 -6 30 -20 37 -32 14 -22 14 -22 -11 1 -35 32
-44 27 -15 -8 35 -41 40 -64 26 -108 -16 -52 -52 -97 -99 -123 -22 -13 -40
-27 -40 -32 0 -4 -9 -6 -20 -2 -11 3 -28 1 -37 -5 -15 -8 -12 -9 12 -5 25 5
27 4 10 -5 -11 -5 -33 -15 -50 -22 -26 -10 -27 -12 -9 -15 36 -7 130 36 178
81 39 36 57 44 112 55 37 7 84 21 106 32 22 11 52 19 66 17 26 -3 27 -6 32
-68 3 -36 9 -71 13 -77 14 -22 -8 -14 -31 10 -30 32 -38 73 -17 85 9 5 15 17
14 27 -4 18 -5 18 -21 1 -38 -37 -12 -123 42 -146 38 -16 46 -9 31 28 -16 37
-20 140 -6 145 5 3 49 -1 96 -7 60 -8 94 -18 113 -34 16 -12 34 -22 40 -22 6
0 -4 10 -21 23 -39 26 -40 33 -10 41 27 7 84 52 76 60 -3 3 -24 -8 -48 -25
l-42 -31 -72 14 c-54 11 -94 12 -161 6 -60 -6 -100 -5 -122 2 -19 7 -48 9 -64
5 -30 -7 -30 -6 -30 38 0 35 -6 53 -27 78 -41 48 -108 73 -160 58z m281 -198
c9 -14 -42 -43 -85 -48 -46 -7 -50 7 -13 36 27 21 88 29 98 12z"/>
<path d="M5354 7926 c-10 -8 -16 -18 -11 -22 4 -4 13 -2 19 4 7 7 19 12 28 12
13 0 13 -2 1 -9 -22 -14 -24 -49 -3 -55 62 -20 95 -102 49 -123 -21 -10 -29
-6 -61 23 -23 21 -36 40 -32 49 3 8 1 15 -4 15 -6 0 -10 7 -10 15 0 8 -4 15
-10 15 -5 0 -10 -5 -10 -12 0 -6 -8 -3 -19 8 -22 22 -18 34 12 35 18 1 19 2 4
6 -27 7 -67 -5 -67 -20 1 -15 69 -59 81 -51 5 3 9 -6 9 -20 0 -16 10 -32 29
-46 17 -11 33 -29 36 -40 9 -27 16 -25 53 11 43 42 41 70 -10 125 -32 34 -39
47 -28 54 18 11 5 40 -18 40 -10 0 -27 -6 -38 -14z"/>
<path d="M6290 7925 c-10 -12 -10 -18 0 -30 10 -12 6 -19 -18 -42 -62 -59 -67
-100 -16 -139 29 -23 37 -25 45 -13 5 8 9 16 9 19 0 3 14 14 30 23 22 14 30
26 30 47 0 23 3 27 20 23 12 -3 22 1 26 11 3 9 15 16 25 16 21 0 26 25 8 36
-19 12 -69 14 -69 4 0 -6 12 -10 27 -10 26 0 26 0 8 -20 -13 -14 -21 -17 -26
-9 -8 14 -29 -20 -29 -49 0 -10 -12 -25 -26 -32 -14 -8 -30 -22 -35 -32 -9
-18 -11 -18 -34 -1 -44 32 -29 85 33 117 32 17 43 50 20 59 -7 3 3 3 22 0 l35
-5 -25 21 c-30 25 -43 26 -60 6z"/>
<path d="M4536 7709 c-4 -9 -22 -24 -40 -34 -32 -18 -33 -17 -79 9 -52 31 -67
28 -67 -14 0 -22 7 -33 28 -44 20 -10 28 -23 30 -46 1 -17 9 -42 17 -54 9 -13
12 -31 9 -41 -7 -16 -6 -16 18 -1 13 9 27 14 30 10 3 -3 24 0 47 6 29 8 41 16
41 29 0 16 5 18 34 11 18 -4 39 -10 45 -14 19 -12 12 -41 -14 -66 l-25 -23
-26 24 -26 24 8 -29 c8 -34 -6 -46 -53 -46 -30 0 -33 3 -34 33 l-1 32 -11 -27
c-6 -16 -18 -28 -27 -28 -19 0 -89 50 -90 64 0 5 7 18 17 28 17 19 5 26 -13 8
-7 -7 -17 -3 -31 12 -19 20 -20 29 -12 72 5 28 15 53 22 58 8 5 5 8 -10 8 -12
0 -29 -10 -37 -22 -27 -39 -16 -148 15 -148 6 0 5 9 -2 23 -12 22 -12 22 10 3
11 -11 21 -26 21 -34 0 -8 16 -30 36 -48 26 -25 45 -34 69 -34 19 0 37 -4 40
-10 11 -17 71 -11 98 10 14 11 34 20 44 20 32 0 66 44 60 77 -3 15 -1 35 3 43
12 22 -46 67 -102 79 -25 6 -53 13 -64 17 -12 4 -9 -2 11 -19 20 -17 37 -24
52 -20 28 6 99 -35 85 -49 -13 -13 -65 -1 -94 21 -28 21 -88 35 -88 20 0 -6 4
-8 9 -5 12 8 63 -42 58 -57 -5 -17 -50 -31 -79 -24 -13 4 -30 18 -36 32 -10
21 -9 28 8 45 26 26 25 30 -3 30 -28 0 -67 26 -67 46 0 18 3 18 47 -6 21 -11
45 -20 53 -20 24 0 84 54 78 71 -5 12 -7 11 -12 -2z m-241 -108 c3 -5 1 -12
-5 -16 -5 -3 -10 1 -10 9 0 18 6 21 15 7z"/>
<path d="M5520 7683 c-25 -14 -49 -33 -54 -42 -5 -8 -20 -25 -33 -37 -29 -27
-29 -48 -1 -68 l22 -16 -27 0 c-33 0 -45 -24 -27 -53 11 -18 9 -23 -11 -39
-100 -79 -146 -97 -202 -78 -37 12 -59 46 -50 79 7 29 -21 28 -42 -1 -13 -20
-17 -21 -25 -8 -5 8 -10 30 -10 48 0 20 -4 31 -10 27 -18 -11 -11 -53 14 -82
22 -25 25 -26 31 -10 4 9 11 17 16 17 4 0 6 -6 3 -13 -6 -17 42 -66 73 -73 13
-4 41 -4 61 0 49 7 152 63 152 82 0 18 8 18 26 -1 17 -17 70 -20 79 -5 3 6 11
10 17 10 7 0 6 -5 -2 -14 -18 -23 -9 -61 16 -62 11 -1 37 -4 57 -8 34 -6 38
-5 47 20 9 23 12 25 23 11 23 -29 51 -28 90 4 20 17 37 39 37 49 0 10 11 25
25 34 14 9 25 25 25 35 0 23 -26 75 -45 91 -8 7 -15 20 -15 29 -1 24 -66 61
-108 61 -26 0 -41 6 -50 20 -17 27 -48 25 -102 -7z m93 -14 c3 -13 12 -19 24
-17 15 2 17 -3 15 -32 l-3 -35 20 30 c23 34 25 34 64 15 33 -16 35 -38 3 -50
-13 -5 -27 -14 -32 -21 -5 -9 -2 -10 10 -6 52 20 66 19 76 -4 5 -13 16 -32 22
-42 11 -16 9 -21 -11 -38 -13 -10 -32 -19 -44 -19 -19 0 -19 -1 -3 -19 21 -23
15 -36 -27 -57 -30 -16 -32 -16 -47 5 -50 71 -49 71 -50 19 0 -53 -1 -53 -72
-40 l-38 7 15 29 c15 28 20 56 10 56 -3 0 -19 -10 -35 -21 -38 -29 -80 -20
-80 16 0 14 -4 25 -10 25 -5 0 -10 7 -10 15 0 12 13 15 61 15 67 0 71 13 10
30 -47 12 -59 36 -32 61 11 10 22 27 26 39 7 22 35 28 35 6 0 -7 7 -20 16 -27
15 -12 16 -10 10 18 -6 25 -3 34 16 47 31 22 55 20 61 -5z"/>
<path d="M5580 7585 c0 -17 27 -57 48 -71 24 -16 25 -17 7 -30 -35 -26 -62
-16 -56 20 1 4 -3 14 -10 22 -6 8 -9 23 -6 34 3 11 0 20 -6 20 -24 0 -5 -119
19 -121 8 -1 20 -2 27 -3 20 -4 67 24 67 39 0 8 -12 22 -26 32 -14 9 -30 27
-35 40 -7 19 -29 33 -29 18z"/>
<path d="M6082 7690 c-10 -11 -33 -20 -52 -22 -59 -4 -104 -40 -139 -111 -17
-35 -31 -69 -31 -75 0 -6 11 -19 25 -30 14 -11 25 -29 25 -41 0 -12 14 -30 37
-46 45 -30 57 -31 82 -6 18 18 19 18 30 -6 10 -22 15 -24 59 -18 26 4 53 8 60
10 14 5 16 41 2 50 -24 15 -7 22 21 8 26 -13 35 -13 57 -2 15 7 31 15 35 17 4
2 6 -2 5 -9 -2 -7 27 -28 66 -47 104 -52 188 -43 218 23 9 20 14 23 26 13 12
-10 18 -8 33 11 20 25 25 66 9 76 -6 4 -10 -8 -10 -29 0 -39 -18 -57 -32 -32
-5 9 -18 16 -28 16 -16 0 -18 -5 -14 -29 13 -61 -85 -93 -164 -52 -54 28 -117
87 -103 95 17 11 13 44 -8 55 -10 6 -21 7 -25 4 -3 -3 -6 -1 -6 5 0 7 4 12 9
12 5 0 13 9 16 20 5 15 -2 31 -24 56 -17 19 -31 39 -31 44 0 6 -7 10 -15 10
-8 0 -31 11 -51 25 -44 30 -58 31 -82 5z m64 -17 c21 -13 25 -22 20 -45 -7
-35 7 -37 23 -2 9 21 14 24 26 14 8 -7 15 -18 15 -25 0 -6 9 -20 20 -30 11
-10 20 -22 20 -27 0 -5 -23 -19 -52 -32 -47 -21 -49 -23 -27 -29 13 -4 41 -7
62 -7 20 0 37 -2 37 -4 0 -16 -32 -75 -44 -79 -8 -3 -31 5 -51 19 -20 13 -38
24 -40 24 -11 0 -4 -37 11 -58 9 -13 14 -24 13 -26 -12 -7 -95 -24 -101 -20
-5 3 -8 21 -8 40 0 19 -2 34 -5 34 -3 0 -19 -16 -37 -35 l-33 -35 -35 30 -35
30 25 22 c25 21 25 21 2 15 -15 -3 -31 2 -48 16 -24 22 -24 22 -7 59 19 40 45
48 84 28 13 -8 19 -7 19 0 0 6 -13 16 -30 21 -40 14 -38 40 5 60 35 17 35 17
52 -12 18 -30 40 -40 29 -14 -3 8 -9 22 -12 30 -4 10 0 15 13 15 10 0 26 9 36
20 20 24 21 24 53 3z"/>
<path d="M6093 7561 c-2 -10 -16 -24 -29 -32 -18 -9 -24 -20 -22 -38 2 -21 11
-28 40 -35 26 -7 41 -6 51 3 17 13 30 82 21 105 -9 23 -55 21 -61 -3z m43 -18
c-4 -16 -8 -37 -10 -48 -2 -14 -11 -21 -33 -23 -40 -4 -50 21 -18 42 13 8 26
25 30 36 3 11 13 20 22 20 12 0 14 -6 9 -27z"/>
<path d="M7150 7699 c0 -6 10 -19 22 -29 21 -17 21 -18 2 -27 -10 -6 -35 -14
-54 -18 -19 -4 -49 -18 -66 -31 -27 -21 -31 -30 -30 -72 2 -63 18 -90 61 -98
19 -3 35 -10 35 -14 0 -16 71 -33 94 -22 11 6 37 13 56 16 38 7 100 60 100 86
0 9 9 25 20 35 11 10 20 13 20 7 0 -6 -4 -14 -10 -17 -5 -3 -10 -12 -10 -18 1
-7 10 -1 20 12 38 45 21 151 -25 151 -10 0 -10 -7 1 -37 19 -54 17 -76 -7 -97
-15 -13 -24 -15 -32 -7 -19 19 -31 12 -14 -7 10 -10 17 -24 17 -30 0 -12 -76
-72 -92 -72 -5 0 -15 15 -23 33 l-14 32 -1 -33 c0 -38 -19 -50 -59 -36 -16 6
-27 18 -29 32 -3 18 -7 20 -23 12 -24 -13 -55 2 -64 30 -8 27 1 39 43 57 36
15 51 8 52 -23 0 -6 24 -15 52 -18 29 -4 61 -14 70 -23 20 -18 25 -4 7 14 -9
9 -8 19 5 39 10 14 16 37 13 50 -3 19 3 28 29 44 27 15 34 26 34 49 0 16 -4
32 -8 35 -4 2 -27 -9 -51 -25 -24 -16 -49 -29 -55 -29 -6 0 -26 14 -44 30 -36
33 -42 35 -42 19z m180 -39 c0 -20 -45 -50 -75 -50 -12 0 -11 -4 5 -20 19 -19
19 -22 5 -50 -13 -25 -21 -30 -53 -30 -72 0 -81 32 -20 71 l33 21 -37 -7 c-45
-7 -47 -1 -12 32 20 18 29 21 40 12 10 -8 23 -5 56 14 54 31 58 32 58 7z
m-216 -66 c-18 -15 -18 -15 4 -9 12 4 22 2 22 -3 0 -19 -78 -46 -98 -33 -18
11 41 61 71 61 20 0 20 0 1 -16z m306 -4 c0 -5 -2 -10 -4 -10 -3 0 -8 5 -11
10 -3 6 -1 10 4 10 6 0 11 -4 11 -10z"/>
<path d="M4046 7612 c-16 -48 43 -139 101 -156 24 -8 63 23 63 49 0 19 -27 19
-46 1 -31 -32 -92 22 -104 93 -6 32 -7 34 -14 13z m134 -132 c0 -5 -8 -10 -17
-10 -15 0 -16 2 -3 10 19 12 20 12 20 0z"/>
<path d="M7637 7586 c-7 -45 -45 -96 -71 -96 -11 0 -27 7 -37 16 -21 19 -39
11 -39 -17 0 -11 11 -24 26 -31 22 -10 32 -9 62 7 47 26 72 62 79 113 7 51
-12 58 -20 8z m-97 -116 c0 -5 -2 -10 -4 -10 -3 0 -8 5 -11 10 -3 6 -1 10 4
10 6 0 11 -4 11 -10z"/>
<path d="M5048 7594 c-78 -24 -111 -99 -72 -160 16 -23 15 -26 -1 -44 -10 -11
-16 -21 -14 -23 8 -6 123 -27 126 -23 3 2 -20 12 -49 22 -30 10 -46 20 -36 22
9 2 26 -2 37 -7 35 -19 36 -12 2 17 -56 47 -53 154 5 181 43 19 55 15 43 -16
-7 -18 -7 -34 0 -48 5 -11 12 -29 15 -40 3 -11 3 4 0 33 -3 33 -1 59 6 67 11
14 6 36 -8 34 -4 0 -28 -7 -54 -15z"/>
<path d="M6588 7594 c-3 -3 -1 -18 5 -35 8 -21 8 -35 1 -47 -6 -9 -7 -28 -3
-42 7 -24 7 -24 8 6 1 16 6 35 13 42 9 9 9 18 -1 38 -16 35 -10 38 33 20 63
-26 75 -120 22 -175 -14 -15 -26 -32 -26 -38 0 -6 -3 -13 -7 -16 -5 -2 -2 -2
5 0 8 1 28 3 45 3 18 0 39 4 47 10 12 7 12 12 -4 29 -17 18 -17 21 -2 43 35
50 5 127 -60 154 -35 15 -67 18 -76 8z m122 -214 c0 -5 -6 -10 -14 -10 -8 0
-23 -3 -33 -6 -16 -5 -16 -4 1 10 22 18 46 21 46 6z"/>
<path d="M4765 7350 c-3 -6 -3 -19 0 -30 8 -25 7 -25 -46 0 -88 40 -133 22
-175 -68 -15 -31 -28 -59 -29 -62 -6 -10 224 -10 230 0 9 15 25 12 25 -5 0
-24 29 -18 56 12 26 28 25 46 -1 19 -24 -24 -35 -11 -22 29 5 19 14 32 19 29
13 -8 9 12 -9 51 -16 34 -36 45 -48 25z m-35 -67 c34 -9 59 -21 57 -27 -3 -6
-10 -10 -17 -8 -7 1 -23 -4 -36 -13 -13 -8 -34 -15 -46 -15 -17 0 -19 -3 -9
-9 15 -9 49 -4 69 12 7 5 15 7 18 4 3 -3 -5 -13 -19 -22 -20 -13 -40 -14 -106
-9 -44 4 -81 11 -81 15 0 5 14 15 30 24 31 16 37 29 20 40 -18 11 0 25 31 25
16 0 56 -8 89 -17z m-140 -22 c0 -5 -7 -11 -15 -15 -15 -5 -20 5 -8 17 9 10
23 9 23 -2z"/>
<path d="M4655 7260 c-4 -6 7 -10 24 -10 17 0 31 5 31 10 0 6 -11 10 -24 10
-14 0 -28 -4 -31 -10z"/>
<path d="M6882 7310 c-19 -39 -19 -40 -1 -35 14 5 17 2 13 -9 -4 -9 -1 -23 6
-31 7 -8 9 -22 6 -31 -6 -15 -9 -14 -31 6 -14 13 -25 18 -25 12 0 -15 37 -49
61 -55 14 -4 19 0 19 14 0 18 2 18 28 5 21 -11 52 -13 129 -9 l101 6 -24 56
c-13 31 -34 64 -45 74 -29 24 -105 22 -147 -3 -41 -25 -41 -25 -39 7 3 45 -27
41 -51 -7z m29 -7 c-12 -20 -14 -14 -5 12 4 9 9 14 11 11 3 -2 0 -13 -6 -23z
m178 -12 c12 -8 12 -12 2 -25 -11 -13 -7 -19 25 -38 l39 -23 -50 -7 c-100 -13
-141 -10 -161 13 l-19 22 32 -17 c36 -18 73 -21 73 -5 0 5 -4 7 -10 4 -5 -3
-24 0 -42 8 -18 8 -41 17 -50 21 -25 8 -22 26 5 27 12 0 38 7 57 14 42 16 80
18 99 6z m46 -41 c3 -5 2 -10 -4 -10 -5 0 -13 5 -16 10 -3 6 -2 10 4 10 5 0
13 -4 16 -10z"/>
<path d="M7003 7253 c9 -2 25 -2 35 0 9 3 1 5 -18 5 -19 0 -27 -2 -17 -5z"/>
<path d="M5126 7331 c-3 -4 14 -14 37 -21 l42 -13 -44 -8 c-25 -5 -66 -16 -93
-25 -47 -15 -153 -14 -212 3 -12 3 -16 1 -12 -6 4 -6 26 -11 49 -11 23 0 49
-5 57 -11 11 -8 2 -9 -35 -5 -41 4 -45 3 -25 -6 55 -22 321 25 335 60 3 8 4
15 3 16 -33 16 -99 33 -102 27z"/>
<path d="M6518 7316 c-50 -15 -54 -22 -24 -41 65 -43 298 -77 327 -48 8 8 -2
10 -38 7 -60 -5 -46 3 27 15 71 11 10 13 -70 2 -41 -6 -68 -4 -115 10 -33 11
-72 19 -87 19 -35 0 -36 16 -3 24 14 4 25 11 25 16 0 6 -1 10 -2 9 -2 -1 -20
-6 -40 -13z"/>
<path d="M5224 7006 c-10 -8 -22 -14 -26 -15 -5 0 -9 -4 -9 -8 -3 -12 -61 -53
-76 -53 -8 0 -26 9 -42 20 -37 28 -123 31 -173 6 -21 -10 -38 -25 -38 -33 0
-8 -11 -31 -25 -51 -14 -20 -25 -46 -25 -59 0 -38 -11 -53 -39 -53 -20 0 -91
-29 -109 -45 -2 -1 -14 -33 -27 -69 -19 -53 -22 -72 -14 -93 6 -15 8 -37 5
-49 -4 -13 -1 -26 5 -29 20 -13 27 -49 13 -76 -7 -15 -10 -30 -6 -34 4 -3 -1
-12 -10 -19 -11 -8 -21 -37 -27 -77 -11 -64 -4 -102 26 -154 16 -27 29 -11 15
19 -6 13 -8 33 -5 45 3 11 1 33 -5 49 -7 21 -6 37 4 61 8 18 14 42 14 52 0 22
28 39 64 39 14 0 26 3 26 6 0 14 -25 51 -48 70 -20 16 -25 31 -28 71 -1 28 -5
60 -8 71 -4 11 -2 23 4 27 5 3 10 17 10 30 0 28 33 39 95 29 59 -8 88 8 80 45
-10 46 23 155 55 186 28 27 31 27 76 16 26 -7 66 -26 90 -42 51 -37 75 -35 90
9 13 42 31 58 77 70 41 12 92 -3 116 -32 7 -9 17 -14 21 -11 5 3 16 -17 25
-45 18 -54 28 -59 65 -33 l25 18 -30 5 c-22 4 -33 13 -40 36 -17 51 -43 82
-77 92 -62 19 -95 21 -114 8z"/>
<path d="M6230 7013 c-51 -15 -91 -39 -96 -58 -7 -30 -83 -67 -108 -53 -13 8
-35 5 -78 -8 -76 -23 -108 -47 -108 -83 0 -20 -7 -31 -26 -40 -39 -17 -62 -5
-89 49 -34 67 -56 80 -137 80 -81 0 -90 -15 -15 -25 58 -8 97 -28 97 -50 0 -8
7 -15 15 -15 8 0 22 -12 31 -27 9 -16 25 -40 36 -56 15 -22 16 -31 8 -48 -9
-17 -8 -23 7 -34 25 -19 49 -3 57 39 4 19 19 59 34 88 24 46 33 54 72 65 32
10 52 11 68 3 33 -14 98 -12 111 3 6 8 14 28 17 45 5 23 19 40 51 61 76 50
126 37 266 -70 l27 -21 0 25 c0 20 10 30 45 48 41 20 49 21 98 10 30 -6 71
-20 92 -31 20 -10 50 -22 65 -25 35 -8 47 -22 52 -59 1 -16 9 -31 16 -34 18
-6 15 14 -10 70 -21 45 -30 54 -93 85 -53 27 -87 36 -141 40 -67 5 -71 4 -87
-21 -22 -33 -44 -33 -93 2 -66 45 -78 50 -102 41 -12 -5 -32 -5 -45 0 -12 4
-29 6 -37 4z"/>
<path d="M2774 6966 c-3 -8 0 -24 6 -36 9 -17 9 -24 0 -30 -7 -5 -9 -20 -5
-44 5 -23 3 -36 -3 -36 -6 0 -14 -21 -18 -47 -3 -27 -11 -53 -16 -60 -5 -7 -7
-17 -3 -23 4 -6 2 -17 -4 -24 -8 -9 -8 -22 -2 -39 5 -14 7 -28 3 -32 -4 -4 -8
-25 -9 -48 -5 -141 -5 -166 1 -176 17 -27 24 6 22 104 -1 58 2 106 6 107 4 2
8 34 9 71 1 41 8 74 15 82 18 17 31 230 15 240 -6 3 -14 0 -17 -9z"/>
<path d="M6230 6890 c0 -13 7 -20 20 -20 13 0 20 7 20 20 0 13 -7 20 -20 20
-13 0 -20 -7 -20 -20z"/>
<path d="M5244 6875 c-4 -9 -2 -21 4 -27 15 -15 44 -1 40 19 -4 23 -36 29 -44
8z"/>
<path d="M4963 6843 c-21 -8 -15 -43 6 -43 11 0 23 5 27 11 8 14 -17 38 -33
32z"/>
<path d="M6617 6826 c-9 -22 19 -42 37 -26 19 15 10 40 -14 40 -10 0 -20 -6
-23 -14z"/>
<path d="M6175 6781 c-33 -9 -73 -24 -90 -33 -16 -9 -45 -25 -62 -35 -29 -16
-93 -100 -93 -122 0 -13 -30 -70 -41 -76 -5 -4 -7 -11 -4 -16 11 -17 66 35 92
88 30 63 44 74 134 108 60 23 72 25 129 16 34 -6 67 -14 73 -19 7 -5 25 -12
41 -16 17 -4 51 -25 77 -47 26 -21 51 -39 56 -39 5 0 27 -18 48 -41 39 -40 76
-62 104 -63 8 -1 19 -14 24 -29 7 -22 5 -32 -9 -48 -13 -14 -18 -34 -16 -64 1
-35 -3 -47 -18 -55 -11 -6 -20 -18 -20 -28 0 -9 -6 -28 -14 -42 -7 -14 -23
-44 -35 -67 -12 -23 -29 -47 -37 -54 -8 -6 -14 -22 -14 -34 0 -13 -10 -32 -23
-42 -13 -10 -26 -26 -30 -36 -3 -9 -18 -22 -31 -28 -14 -7 -29 -25 -35 -40
-16 -45 -185 -206 -324 -307 -18 -13 -35 -29 -40 -37 -4 -8 -31 -27 -60 -44
-28 -16 -80 -56 -114 -88 -34 -32 -82 -75 -106 -97 -31 -25 -47 -49 -51 -71
-5 -22 -18 -40 -41 -56 -38 -26 -45 -53 -17 -68 25 -13 34 -5 68 64 25 53 141
185 162 185 4 0 20 11 36 25 16 14 35 25 42 25 7 0 29 15 49 34 52 49 95 80
133 95 18 8 37 22 42 31 5 10 29 27 53 39 23 11 50 33 59 48 29 48 50 73 145
166 70 68 94 100 99 125 4 18 13 36 21 39 7 3 20 21 29 41 8 19 29 50 47 68
17 18 35 46 39 61 3 15 11 42 16 58 14 42 32 114 36 150 17 136 19 126 -28
175 -23 25 -59 53 -80 62 -20 10 -39 25 -42 33 -6 13 -59 49 -131 86 -29 15
-67 23 -158 33 -16 2 -57 -3 -90 -13z"/>
<path d="M5573 6764 c-6 -16 15 -37 29 -28 4 3 8 14 8 25 0 23 -28 26 -37 3z"/>
<path d="M5934 6769 c-3 -6 0 -18 9 -26 18 -18 37 -9 37 18 0 21 -34 27 -46 8z"/>
<path d="M5150 6752 c-8 -5 -44 -12 -78 -16 -58 -5 -122 -30 -122 -47 0 -4
-22 -32 -50 -62 -27 -30 -50 -61 -50 -68 0 -8 -7 -27 -15 -42 -19 -37 -23
-200 -6 -221 9 -11 9 -20 2 -34 -8 -15 -7 -23 5 -33 14 -12 23 -26 81 -144 14
-27 29 -52 33 -55 4 -3 26 -32 48 -66 23 -34 64 -84 92 -112 27 -28 50 -55 50
-61 0 -5 14 -19 30 -31 17 -12 37 -35 45 -51 9 -16 22 -29 30 -29 8 0 15 -4
15 -10 0 -5 13 -16 28 -24 15 -8 34 -27 42 -43 l14 -28 4 24 c2 15 -2 29 -11
36 -8 6 -16 19 -18 30 -3 11 -17 26 -32 33 -15 7 -27 17 -27 22 0 5 -9 12 -20
15 -11 4 -27 21 -36 38 -9 18 -36 50 -59 72 -24 22 -60 67 -81 100 -21 33 -46
69 -57 80 -11 11 -32 46 -47 78 -16 32 -36 67 -46 78 -26 28 -53 242 -33 255
5 3 9 17 9 32 0 43 46 131 74 144 14 6 28 19 31 28 9 28 97 63 141 57 54 -7
146 -27 164 -34 8 -3 27 -7 42 -8 37 -3 170 -83 196 -117 7 -10 18 -18 23 -18
19 0 91 -85 114 -135 13 -27 36 -63 51 -80 48 -49 41 -8 -18 111 -44 89 -61
114 -98 140 -25 18 -50 33 -57 33 -6 1 -18 9 -25 19 -17 23 -94 72 -112 72 -8
0 -18 5 -21 10 -3 6 -14 10 -23 10 -9 0 -39 12 -67 26 -55 27 -131 40 -155 26z"/>
<path d="M6813 6693 c-8 -21 -22 -46 -31 -56 -14 -16 -14 -19 -2 -27 8 -5 33
-9 55 -9 22 1 53 -1 68 -3 25 -5 28 -3 25 20 -2 14 -10 28 -18 32 -8 4 -28 14
-43 21 -22 10 -27 18 -22 36 9 37 -15 26 -32 -14z"/>
<path d="M4715 6600 c-4 -7 -3 -16 3 -22 14 -14 45 -2 40 15 -6 16 -34 21 -43
7z"/>
<path d="M6926 6548 c-13 -60 -12 -105 2 -133 8 -16 11 -27 7 -23 -5 4 -21
-10 -37 -31 -15 -21 -39 -42 -52 -45 -36 -9 -38 -30 -6 -79 20 -32 29 -60 32
-101 1 -31 0 -56 -4 -56 -5 0 -8 -8 -8 -18 0 -10 -18 -36 -40 -58 -44 -44 -48
-54 -22 -54 19 0 62 39 62 55 0 5 9 18 19 29 14 15 20 37 21 76 2 77 -5 137
-19 154 -12 14 -5 46 10 46 5 0 13 8 16 18 4 9 16 24 26 33 16 12 20 30 22 90
3 81 -2 119 -16 119 -5 0 -11 -10 -13 -22z"/>
<path d="M5754 6539 c-3 -6 1 -18 10 -27 15 -15 17 -15 32 0 19 19 11 38 -16
38 -10 0 -22 -5 -26 -11z"/>
<path d="M6786 6494 c-12 -12 -13 -20 -5 -35 14 -27 53 -22 57 8 4 30 -31 49
-52 27z"/>
<path d="M3996 6442 c-3 -5 5 -14 17 -20 36 -17 57 -22 57 -13 0 21 -64 49
-74 33z"/>
<path d="M5858 6420 c-4 -24 -1 -30 11 -28 21 4 28 58 8 58 -9 0 -17 -13 -19
-30z"/>
<path d="M4089 6391 c10 -18 77 -38 89 -27 3 3 -2 6 -10 6 -9 0 -18 7 -22 15
-3 8 -12 12 -20 9 -8 -3 -17 -1 -21 5 -12 20 -26 12 -16 -8z"/>
<path d="M4206 6353 c-10 -10 15 -33 35 -33 11 0 19 -4 19 -10 0 -5 9 -10 19
-10 11 0 23 -4 26 -10 8 -12 25 -13 25 -1 0 5 -12 14 -27 20 -16 6 -42 20 -60
30 -17 11 -34 17 -37 14z"/>
<path d="M2712 6308 c-7 -7 -12 -21 -12 -32 1 -18 3 -17 16 7 17 31 15 44 -4
25z"/>
<path d="M4713 6244 c-3 -8 -1 -20 6 -27 14 -14 47 15 37 32 -10 16 -36 13
-43 -5z"/>
<path d="M2680 6221 c0 -20 17 -37 27 -28 7 8 -7 47 -18 47 -5 0 -9 -9 -9 -19z"/>
<path d="M2670 6160 c0 -21 4 -30 13 -27 6 2 12 14 12 27 0 13 -6 25 -12 28
-9 2 -13 -7 -13 -28z"/>
<path d="M6714 6126 c-11 -28 1 -51 25 -51 32 0 49 28 32 49 -17 20 -50 21
-57 2z"/>
<path d="M2670 6081 c0 -12 5 -21 10 -21 6 0 10 6 10 14 0 8 -4 18 -10 21 -5
3 -10 -3 -10 -14z"/>
<path d="M4750 6087 c-14 -6 -26 -11 -27 -12 -1 0 4 -17 11 -38 l12 -37 32 33
c22 22 30 39 26 50 -7 19 -19 20 -54 4z"/>
<path d="M2659 6048 c-1 -2 -3 -19 -4 -38 -2 -19 -4 -41 -6 -49 -2 -7 2 -16
10 -19 10 -3 12 2 7 21 -3 14 -2 29 4 32 13 8 13 55 0 55 -5 0 -11 -1 -11 -2z"/>
<path d="M4720 5962 c0 -18 9 -46 22 -62 25 -34 46 -29 24 6 -9 13 -16 29 -16
37 0 7 -7 22 -15 33 -14 18 -14 17 -15 -14z"/>
<path d="M4872 5943 c2 -10 10 -18 18 -18 8 0 16 8 18 18 2 12 -3 17 -18 17
-15 0 -20 -5 -18 -17z"/>
<path d="M6735 5920 c-11 -4 -37 -6 -57 -3 -41 6 -44 1 -28 -43 15 -40 -16
-143 -47 -157 -12 -5 -20 -14 -17 -19 3 -4 -13 -17 -36 -27 -43 -19 -114 -19
-134 0 -17 15 -44 10 -50 -9 -4 -10 0 -40 8 -67 8 -27 12 -53 8 -59 -4 -6 -7
-23 -8 -38 -1 -19 2 -25 13 -21 22 9 32 44 26 95 -6 54 2 62 64 59 57 -2 111
21 123 54 5 14 17 25 28 25 27 0 52 32 52 67 0 51 20 91 56 114 47 29 47 49
-1 29z"/>
<path d="M2636 5894 c-3 -9 -6 -28 -6 -43 0 -15 -5 -32 -12 -39 -9 -9 -9 -18
1 -39 9 -19 9 -29 2 -31 -6 -2 -11 -12 -11 -23 0 -10 -4 -19 -9 -19 -5 0 -9
-10 -9 -22 -1 -13 -3 -53 -6 -90 -3 -38 -1 -70 5 -73 5 -4 9 -2 9 3 0 6 14 90
30 187 17 97 30 183 30 191 0 19 -16 18 -24 -2z"/>
<path d="M4992 5797 c-30 -17 -55 -54 -46 -69 4 -6 9 -32 11 -57 2 -25 4 -60
6 -76 4 -45 53 -105 86 -105 26 0 26 0 5 18 -40 34 -57 74 -60 142 -2 47 3 73
15 95 37 65 33 79 -17 52z"/>
<path d="M6510 5785 c0 -31 26 -43 47 -22 21 21 9 47 -22 47 -20 0 -25 -5 -25
-25z"/>
<path d="M5112 5648 c2 -12 10 -23 18 -23 22 0 19 39 -3 43 -15 3 -18 -1 -15
-20z"/>
<path d="M6232 5581 c-21 -13 -10 -46 16 -49 27 -4 40 22 22 43 -14 17 -20 18
-38 6z"/>
<path d="M5385 5528 c9 -30 53 -88 66 -88 6 0 19 -20 30 -45 11 -24 28 -50 38
-57 10 -7 26 -29 34 -48 8 -19 22 -44 31 -55 14 -19 14 -17 4 20 -13 51 -55
135 -67 135 -5 0 -23 23 -40 50 -17 28 -35 50 -41 50 -5 0 -16 14 -25 30 -18
35 -40 41 -30 8z"/>
<path d="M4610 5506 c-88 -36 -184 -87 -193 -103 -5 -8 -32 -25 -60 -38 -29
-14 -92 -54 -142 -89 -49 -36 -132 -87 -183 -112 -52 -26 -96 -52 -98 -59 -3
-7 -27 -25 -54 -39 -27 -15 -53 -33 -57 -40 -5 -8 -26 -22 -48 -33 -80 -40
-142 -79 -230 -145 -49 -37 -95 -68 -101 -68 -7 0 -19 -11 -28 -25 -9 -14 -20
-25 -25 -25 -19 0 -91 -54 -97 -73 -5 -15 -12 -18 -40 -12 -25 4 -34 2 -34 -8
0 -8 -21 -25 -46 -38 -26 -13 -48 -29 -51 -36 -3 -7 -25 -24 -49 -38 -51 -30
-55 -37 -16 -26 44 13 109 49 115 64 3 8 34 29 70 48 36 18 64 36 62 40 -2 3
10 6 27 6 17 0 34 6 39 15 5 9 32 30 59 47 28 17 50 35 50 40 0 6 21 19 46 30
25 12 48 29 51 39 3 11 42 37 101 65 53 26 120 64 147 83 28 19 73 46 100 59
28 14 59 30 70 37 71 45 141 92 145 97 11 13 56 38 90 50 19 6 51 26 71 45 19
18 53 43 75 54 21 11 48 30 59 42 18 20 214 120 236 120 5 0 9 4 9 9 0 5 3 16
6 25 8 21 -9 19 -76 -8z"/>
<path d="M5212 5500 c-32 -14 -55 -18 -88 -13 -32 4 -44 2 -44 -7 0 -8 8 -10
25 -6 14 4 25 2 25 -4 0 -5 9 -10 19 -10 28 0 52 -11 45 -21 -3 -5 0 -17 6
-26 11 -17 11 -17 6 0 -4 12 3 26 23 43 26 22 48 64 33 64 -4 0 -26 -9 -50
-20z"/>
<path d="M2574 5486 c-4 -11 -8 -38 -8 -60 -1 -23 -4 -43 -8 -46 -4 -3 -12
-36 -17 -72 -5 -36 -14 -76 -21 -87 -6 -12 -8 -30 -5 -41 3 -11 2 -28 -4 -38
-6 -11 -12 -54 -15 -96 -3 -42 -8 -81 -11 -86 -3 -6 -8 -29 -9 -53 -2 -23 -11
-82 -20 -132 -10 -49 -19 -148 -22 -220 -2 -71 -6 -150 -9 -175 -10 -79 -8
-153 5 -210 7 -30 12 -66 11 -79 0 -12 6 -39 15 -57 9 -19 14 -37 11 -40 -8
-8 25 -44 40 -44 8 0 19 -11 25 -25 9 -20 8 -33 -7 -64 -17 -39 -15 -71 5 -71
5 0 10 8 10 18 0 9 9 23 20 30 11 7 20 20 20 30 0 20 100 219 134 267 11 17
22 39 23 50 2 22 64 92 106 120 15 9 27 23 27 29 0 6 13 19 29 29 19 11 29 25
28 37 -2 28 -11 25 -56 -17 -22 -21 -59 -54 -83 -73 -24 -19 -64 -58 -87 -87
-42 -49 -55 -72 -81 -139 -14 -39 -53 -62 -74 -45 -33 28 -52 192 -29 249 7
18 11 42 9 55 -12 53 -15 109 -7 129 5 14 2 36 -7 61 -13 31 -13 46 -4 85 7
26 10 67 7 92 -3 30 1 56 11 75 9 17 12 40 9 56 -3 15 -2 30 3 33 5 3 8 52 7
108 -2 56 -1 107 3 112 3 6 7 21 9 35 7 57 10 76 12 81 2 3 4 23 6 45 2 22 8
76 15 120 8 54 9 88 2 105 -9 23 -11 24 -18 6z"/>
<path d="M6119 5439 c-8 -16 -8 -28 0 -46 24 -54 3 -104 -61 -140 -38 -22 -56
-26 -147 -27 -71 -1 -106 -5 -108 -13 -3 -8 6 -11 24 -10 l28 2 -2 -77 c-1
-43 2 -78 6 -78 4 0 16 9 26 20 16 18 16 23 3 63 l-14 44 34 23 c21 15 36 20
40 13 8 -11 28 -10 92 8 62 16 124 81 116 120 -8 42 15 60 78 58 60 -2 98 14
89 37 -3 9 -12 13 -22 9 -39 -15 -70 -16 -105 -1 -51 21 -63 20 -77 -5z"/>
<path d="M5324 5399 c-3 -6 0 -17 8 -25 13 -13 16 -13 27 0 7 8 10 20 6 26 -8
13 -32 13 -41 -1z"/>
<path d="M5216 5355 c10 -42 31 -64 70 -71 19 -3 37 -10 40 -15 7 -12 44 -12
44 0 0 5 -18 12 -40 16 -26 4 -41 13 -45 26 -4 10 -12 19 -20 19 -7 0 -23 12
-35 27 l-22 28 8 -30z"/>
<path d="M5947 5367 c-8 -21 8 -39 29 -35 27 5 25 42 -2 46 -12 2 -24 -3 -27
-11z"/>
<path d="M5405 5197 c1 -46 9 -79 30 -122 16 -32 31 -53 33 -46 2 6 -1 17 -6
24 -6 7 -19 35 -29 62 -17 44 -18 55 -6 82 7 17 22 34 33 38 33 11 23 25 -19
25 l-38 0 2 -63z"/>
<path d="M5590 5071 c0 -27 19 -36 37 -18 18 18 9 37 -18 37 -12 0 -19 -7 -19
-19z"/>
<path d="M5500 5011 c0 -10 19 -25 25 -20 1 2 -3 10 -11 17 -8 7 -14 8 -14 3z"/>
<path d="M5785 5010 c-11 -5 -40 -9 -64 -9 -26 -1 -57 -10 -78 -22 -42 -26
-37 -34 14 -20 21 6 53 11 71 11 36 0 92 25 92 40 0 12 -8 12 -35 0z"/>
<path d="M4447 4923 c-3 -3 -3 -12 0 -20 5 -13 3 -14 -18 -2 -17 10 -61 14
-141 14 -113 0 -117 -1 -112 -20 16 -52 55 -112 79 -123 39 -18 96 -15 140 8
22 11 40 20 41 20 2 0 4 -12 6 -27 4 -41 33 -41 49 -1 7 18 15 37 17 42 3 5 0
6 -7 2 -6 -4 -11 -1 -11 9 0 8 -6 24 -12 35 -20 31 4 48 31 21 23 -23 27 -20
11 9 -10 18 -64 43 -73 33z m-26 -34 c11 -6 18 -13 16 -16 -3 -2 -14 0 -25 6
-26 14 -72 14 -72 1 0 -5 6 -7 14 -4 8 3 28 -2 45 -10 16 -9 39 -16 51 -16 40
0 21 -27 -25 -34 -25 -3 -65 -9 -90 -12 -53 -8 -84 1 -67 18 19 19 14 28 -25
46 l-38 16 70 11 c78 12 116 11 146 -6z m-176 -49 c3 -5 2 -10 -4 -10 -5 0
-13 5 -16 10 -3 6 -2 10 4 10 5 0 13 -4 16 -10z"/>
<path d="M4333 4833 c9 -2 25 -2 35 0 9 3 1 5 -18 5 -19 0 -27 -2 -17 -5z"/>
<path d="M6723 4896 c-15 -13 -24 -28 -20 -33 5 -4 13 0 18 10 12 20 39 23 39
3 0 -24 -25 -63 -38 -58 -13 4 25 -68 42 -80 17 -12 28 3 24 33 -5 30 1 36 18
20 5 -5 32 -16 60 -25 81 -26 137 1 170 84 3 8 9 25 14 36 8 21 7 21 -113 20
-67 -1 -131 -5 -141 -10 -16 -8 -18 -6 -13 7 10 26 -27 21 -60 -7z m226 -2
c67 -7 77 -19 31 -35 -31 -11 -39 -32 -18 -45 7 -5 3 -10 -12 -16 -20 -7 -175
15 -188 27 -2 2 4 15 14 30 29 44 58 50 173 39z m51 -59 c-7 -9 -15 -13 -17
-11 -7 7 7 26 19 26 6 0 6 -6 -2 -15z"/>
<path d="M6823 4875 c-18 -8 -33 -19 -33 -25 0 -6 11 -5 30 5 16 8 38 15 50
15 11 0 20 5 20 10 0 14 -29 12 -67 -5z"/>
<path d="M6850 4830 c0 -6 11 -9 25 -7 37 5 42 17 7 17 -18 0 -32 -5 -32 -10z"/>
<path d="M4585 4873 c-43 -11 -34 -20 17 -17 67 5 51 -2 -25 -11 -32 -4 -56
-9 -53 -12 3 -4 44 -1 90 6 72 11 92 11 138 -2 54 -15 162 -21 123 -7 -11 4
-33 6 -50 4 -24 -4 -26 -3 -10 4 17 8 11 11 -31 20 -65 14 -173 22 -199 15z"/>
<path d="M6500 4863 c-75 -11 -210 -48 -214 -59 -3 -7 17 -18 56 -29 66 -18
92 -14 31 5 -58 19 -63 30 -12 30 25 0 69 7 99 16 39 12 78 14 149 10 83 -4
88 -4 37 4 -76 12 -88 25 -16 17 36 -4 48 -3 35 3 -20 9 -117 11 -165 3z"/>
<path d="M4900 4800 c-8 -5 -28 -12 -44 -15 -15 -3 -26 -8 -24 -11 8 -8 107
19 102 28 -6 10 -14 9 -34 -2z"/>
<path d="M4873 4755 c-18 -8 -38 -25 -45 -40 -12 -27 -23 -32 -33 -14 -12 18
-55 -31 -55 -63 0 -15 5 -28 10 -28 6 0 10 12 10 28 0 15 4 33 9 41 7 11 13
10 32 -8 34 -32 49 -27 42 13 -4 29 -1 37 22 52 57 38 158 13 249 -61 27 -22
28 -24 13 -40 -24 -24 -21 -34 16 -50 17 -8 27 -14 20 -15 -23 0 -27 -43 -6
-60 11 -8 28 -28 37 -43 10 -15 25 -27 33 -27 8 0 26 -9 40 -20 30 -23 88 -27
100 -5 5 8 28 16 53 18 67 6 109 37 147 108 39 74 40 84 9 105 -14 8 -26 25
-28 37 -4 25 -62 67 -93 67 -13 0 -28 -7 -35 -15 -7 -9 -19 -14 -27 -11 -9 4
-13 -4 -13 -24 0 -37 12 -38 30 -4 24 44 47 49 87 18 l36 -27 -29 -24 -29 -23
31 6 c24 5 37 0 60 -19 l29 -26 -22 -21 c-13 -11 -23 -26 -23 -32 0 -7 -16 -9
-47 -4 -43 6 -45 5 -28 -9 11 -8 26 -15 33 -15 18 0 14 -30 -5 -37 -10 -3 -25
-12 -34 -20 -15 -12 -19 -11 -39 16 -24 34 -47 43 -30 12 16 -31 12 -41 -15
-41 -14 0 -28 -7 -31 -15 -16 -40 -89 1 -77 43 8 31 -11 27 -26 -5 l-13 -28
-19 25 c-10 14 -29 35 -41 47 -25 25 -21 33 25 50 18 6 24 12 15 12 -10 1 -18
6 -18 11 0 6 -8 10 -17 10 -32 0 -46 15 -35 36 6 11 13 27 16 37 7 24 57 22
89 -3 34 -27 51 -27 37 0 -6 11 -15 18 -19 15 -5 -3 -24 2 -43 9 -30 13 -39
13 -61 1 -25 -13 -29 -11 -58 16 -28 26 -42 33 -61 30 -4 0 -26 6 -49 14 -51
18 -84 18 -126 0z"/>
<path d="M5335 4760 c-11 -5 -35 -9 -52 -9 -26 -1 -33 -5 -33 -20 0 -11 4 -22
9 -25 5 -3 8 2 7 11 -1 13 11 19 44 25 25 5 53 6 63 4 21 -5 23 10 1 18 -9 3
-16 6 -17 5 -1 0 -11 -4 -22 -9z"/>
<path d="M6240 4756 c-19 -7 -44 -17 -54 -21 -15 -7 -17 -5 -11 6 5 8 -7 1
-27 -16 -20 -16 -37 -36 -37 -42 -1 -15 -27 -17 -36 -3 -12 19 -25 10 -15 -10
38 -75 38 -70 1 -70 -16 0 -34 -6 -40 -14 -10 -12 -7 -17 16 -28 35 -17 35
-27 -1 -72 -33 -41 -51 -45 -61 -13 -8 21 -8 21 -12 -5 -5 -31 -18 -44 -56
-53 -21 -6 -27 -4 -27 9 0 9 -6 17 -12 17 -7 1 -20 2 -28 3 -10 1 -14 10 -12
29 4 34 -11 35 -26 2 -15 -32 -42 -32 -71 -1 -23 25 -21 46 4 46 8 0 17 5 20
11 5 7 -5 8 -29 4 -31 -6 -37 -4 -46 16 -5 13 -16 32 -22 42 -20 28 24 60 72
53 l35 -6 -32 17 c-18 9 -33 20 -33 24 0 13 57 49 78 49 11 0 29 -11 40 -25
26 -33 32 -32 32 8 -1 29 -2 30 -14 14 -11 -14 -15 -15 -19 -4 -3 8 -18 17
-32 21 -36 9 -94 -29 -102 -65 -3 -15 -16 -32 -29 -38 -13 -6 -24 -19 -24 -29
0 -25 30 -85 47 -95 7 -4 13 -16 13 -25 0 -25 72 -62 119 -62 28 0 48 -7 61
-20 23 -23 58 -19 102 11 14 11 30 19 35 19 14 0 83 79 83 95 0 8 -12 21 -27
29 l-28 15 30 1 c17 0 37 5 45 10 13 8 13 13 -2 37 l-16 27 65 42 c73 48 132
62 187 44 37 -12 52 -37 41 -70 -8 -27 14 -26 48 0 l26 21 5 -23 c3 -13 7 -34
9 -48 3 -22 4 -23 12 -6 17 39 -34 110 -55 76 -5 -8 -10 -12 -12 -10 -2 3 -8
14 -14 24 -27 50 -104 74 -164 52z"/>
<path d="M4755 4750 c-11 -5 -39 -9 -62 -9 -47 -1 -51 -6 -26 -33 13 -14 14
-23 6 -41 -21 -43 -23 -59 -8 -93 15 -37 77 -73 126 -74 36 0 41 8 22 37 -13
20 -14 29 -5 44 7 10 11 29 11 41 -1 21 -2 21 -6 3 -3 -11 -12 -28 -21 -38
-12 -14 -13 -22 -4 -42 11 -23 10 -25 -13 -25 -13 0 -37 11 -52 24 -23 20 -28
32 -28 70 0 38 5 51 34 80 19 20 31 36 25 36 -5 1 5 7 21 15 32 14 13 19 -20
5z m-15 -30 c-8 -5 -26 -9 -40 -9 -23 0 -23 1 -5 9 11 5 29 9 40 9 17 1 17 -1
5 -9z"/>
<path d="M6453 4743 c9 -2 17 -10 17 -16 0 -7 14 -23 31 -37 38 -32 50 -96 26
-134 -15 -22 -82 -54 -93 -43 -3 2 1 17 8 32 10 23 10 29 -5 40 -9 7 -18 23
-18 36 -1 18 -2 20 -6 6 -3 -10 1 -32 8 -48 9 -23 9 -33 0 -42 -34 -34 11 -49
80 -26 46 16 59 29 69 74 6 28 4 46 -7 70 -15 31 -15 35 2 51 17 18 15 19 -46
31 -62 11 -102 15 -66 6z m87 -23 c12 -1 11 -3 -2 -11 -12 -7 -24 -6 -38 1
-27 14 -25 24 3 16 12 -3 29 -6 37 -6z"/>
<path d="M5960 4704 c0 -8 5 -12 10 -9 6 3 10 10 10 16 0 5 -4 9 -10 9 -5 0
-10 -7 -10 -16z"/>
<path d="M4100 4699 c-53 -10 -124 -58 -128 -87 -3 -21 -42 -62 -42 -44 0 6 5
14 10 17 6 3 10 12 10 18 0 7 -12 -1 -25 -16 -32 -36 -34 -98 -5 -127 11 -11
27 -20 34 -20 13 0 13 4 0 35 -7 19 -14 43 -14 54 0 24 37 61 55 55 9 -4 11 2
8 19 -4 18 3 31 27 50 42 35 73 35 87 0 l11 -28 1 32 c1 23 7 34 22 38 27 9
76 -12 82 -34 3 -14 12 -17 35 -13 24 3 34 -1 47 -22 14 -21 15 -29 5 -41 -7
-8 -21 -15 -32 -15 -11 0 -28 -5 -39 -10 -13 -7 -19 -7 -19 0 0 5 5 10 12 10
6 0 8 3 5 7 -4 3 -3 11 2 17 11 13 -132 16 -145 4 -4 -5 13 -8 38 -8 80 0 87
-41 14 -76 l-31 -14 39 5 c22 2 42 8 45 12 16 22 80 46 106 39 27 -7 27 -7 9
-28 -19 -21 -19 -21 1 -10 31 16 31 103 0 132 -12 11 -33 22 -46 22 -13 1 -35
10 -48 20 -25 19 -59 21 -131 7z"/>
<path d="M7008 4691 c-14 -12 -37 -21 -50 -21 -14 0 -37 -13 -53 -30 -25 -26
-27 -33 -17 -55 9 -20 8 -26 -6 -34 -9 -5 -15 -11 -12 -14 45 -36 84 -58 121
-66 25 -6 54 -13 65 -16 13 -5 10 1 -10 19 -21 17 -38 23 -55 20 -28 -5 -91
28 -91 47 0 16 66 4 99 -18 14 -10 33 -18 41 -19 8 -1 26 -4 39 -9 33 -10 19
9 -18 25 -32 13 -47 38 -33 52 5 5 27 12 48 15 31 4 44 0 62 -17 28 -26 28
-45 0 -64 -26 -18 -25 -20 27 -32 31 -7 41 -14 43 -33 2 -13 0 -21 -5 -19 -87
43 -109 44 -156 7 -30 -23 -35 -39 -11 -39 8 0 13 4 10 9 -3 4 13 17 35 27 41
18 42 18 80 -4 21 -12 47 -22 58 -22 32 0 27 45 -6 75 -19 17 -23 25 -13 25
11 1 10 4 -4 9 -10 4 -25 26 -33 50 -12 35 -12 45 -1 58 14 17 11 16 -35 -7
-22 -11 -33 -11 -47 -2 -10 6 -20 7 -22 2 -2 -5 -16 -10 -33 -12 -36 -4 -48
-17 -32 -37 10 -11 8 -13 -8 -8 -11 3 -32 9 -47 12 -32 8 -43 42 -21 67 19 22
41 22 67 3 28 -21 38 -18 24 6 -11 17 -10 22 7 35 11 8 34 14 50 12 26 -3 31
-8 35 -38 l6 -35 8 33 c10 43 41 42 90 -3 38 -34 38 -36 21 -55 -10 -11 -13
-20 -7 -20 6 0 14 5 17 11 10 15 55 -29 55 -53 0 -11 5 -16 10 -13 6 3 10 -1
10 -9 0 -9 -6 -13 -14 -10 -8 3 -16 -3 -19 -15 -3 -12 0 -21 6 -21 6 0 2 -7
-9 -15 -11 -9 -14 -14 -6 -15 7 0 24 11 37 25 30 29 33 83 9 120 -20 31 -39
33 -24 3 8 -17 5 -15 -12 6 -62 77 -96 104 -140 109 -24 3 -57 9 -73 12 -22 5
-37 1 -57 -14z"/>
<path d="M5987 4685 c-15 -8 -31 -14 -34 -14 -4 0 -9 -4 -11 -10 -6 -19 22
-11 53 14 34 28 32 31 -8 10z"/>
<path d="M3744 4636 c-41 -18 -80 -71 -87 -118 -4 -29 -2 -38 9 -38 9 0 14 11
14 30 0 59 96 131 114 85 7 -20 32 -19 41 2 4 12 -1 24 -15 35 -26 21 -35 22
-76 4z m60 -15 c4 -5 -3 -7 -14 -4 -23 6 -26 13 -6 13 8 0 17 -4 20 -9z"/>
<path d="M5313 4644 c-7 -3 -13 -16 -13 -29 0 -13 -4 -27 -10 -30 -16 -10 -12
-33 10 -55 23 -23 43 -18 58 15 6 13 20 26 31 30 24 7 26 22 7 47 -14 19 -62
31 -83 22z m72 -28 c18 -13 17 -14 -13 -30 -17 -9 -34 -27 -38 -41 -4 -15 -11
-22 -20 -18 -16 6 -19 39 -4 48 6 3 10 17 10 31 0 18 5 24 23 24 13 0 32 -6
42 -14z"/>
<path d="M4155 4630 c3 -5 8 -10 11 -10 2 0 4 5 4 10 0 6 -5 10 -11 10 -5 0
-7 -4 -4 -10z"/>
<path d="M5870 4633 c-36 -5 -60 -18 -60 -35 0 -5 16 -18 35 -29 19 -12 35
-27 35 -35 0 -15 43 -29 59 -19 14 8 14 62 0 70 -6 4 -8 13 -5 20 4 12 -12 37
-23 33 -4 0 -22 -3 -41 -5z m48 -54 c10 -32 10 -45 1 -53 -8 -8 -13 -7 -17 4
-3 8 -21 29 -39 46 -36 33 -33 42 17 43 21 1 27 -6 38 -40z"/>
<path d="M7401 4626 c-13 -16 -4 -46 14 -46 7 0 18 7 25 14 26 33 109 -32 110
-86 0 -32 16 -45 23 -19 9 37 -6 71 -49 111 -46 43 -100 54 -123 26z m49 -6
c-20 -13 -33 -13 -25 0 3 6 14 10 23 10 15 0 15 -2 2 -10z"/>
<path d="M5470 4621 c0 -4 11 -6 25 -3 14 2 25 6 25 8 0 2 -11 4 -25 4 -14 0
-25 -4 -25 -9z"/>
<path d="M4063 4552 c-10 -17 -27 -36 -38 -41 -19 -9 -19 -10 -1 -10 17 -1 16
-4 -8 -26 -29 -27 -36 -75 -11 -75 8 0 36 12 62 26 l48 27 38 -23 c21 -12 36
-24 34 -26 -1 -2 -49 -10 -104 -19 -75 -11 -123 -25 -188 -55 -48 -22 -91 -37
-97 -34 -7 4 -8 36 -4 90 l7 84 -27 10 c-21 8 -32 7 -51 -6 -14 -9 -34 -13
-46 -10 -23 6 -57 -9 -57 -26 0 -9 3 -9 12 0 17 17 33 15 18 -3 -6 -8 -8 -19
-4 -26 5 -9 -1 -10 -21 -7 -41 8 -84 -10 -91 -38 -4 -13 -16 -32 -28 -42 -35
-27 -40 -41 -21 -62 15 -17 15 -20 0 -44 -21 -32 -13 -76 14 -76 35 0 86 23
118 53 26 24 40 30 73 29 28 -1 42 3 46 13 4 8 15 15 25 15 18 0 19 -2 4 -29
-24 -47 -65 -74 -102 -68 -34 6 -42 -3 -20 -21 15 -13 94 19 103 42 12 30 30
24 31 -10 1 -23 -4 -34 -13 -34 -17 0 -44 -51 -44 -82 0 -35 25 -65 60 -71 36
-8 39 -24 5 -33 -34 -8 -69 2 -101 30 -24 20 -28 31 -28 74 0 28 -3 49 -8 46
-4 -3 -8 -25 -8 -49 0 -67 38 -106 110 -113 44 -4 56 -2 67 13 21 30 16 45
-15 45 -55 0 -86 71 -48 108 15 16 16 14 10 -15 -7 -35 1 -83 14 -83 5 0 6 27
4 60 -4 50 -2 60 11 60 25 0 31 20 11 35 -15 11 -16 17 -7 38 18 38 72 96 107
112 42 20 178 54 246 61 52 6 54 6 38 -11 -12 -13 -14 -21 -5 -30 9 -10 22 -7
58 13 45 26 48 26 113 13 46 -9 98 -11 170 -6 67 4 117 3 145 -5 30 -8 52 -8
72 -1 l29 10 0 -42 c0 -53 18 -79 77 -114 50 -29 112 -35 151 -14 33 18 23 22
-21 10 -34 -9 -117 3 -117 17 0 3 9 3 20 0 11 -3 29 -9 40 -12 11 -3 20 -1 20
5 0 6 -9 11 -20 11 -39 0 -81 30 -100 73 -18 40 -18 41 5 86 27 53 67 93 112
110 17 7 34 19 37 27 3 8 11 14 18 14 9 0 8 -3 -2 -10 -13 -9 -13 -10 0 -9 8
0 24 4 35 9 l20 9 -20 1 c-15 1 -12 5 12 13 48 18 53 31 10 24 -55 -8 -138
-49 -183 -90 -32 -28 -50 -36 -99 -42 -33 -4 -87 -18 -119 -31 -98 -39 -116
-31 -116 56 0 31 -5 61 -12 68 -17 17 4 15 30 -4 13 -9 28 -28 33 -42 9 -22 7
-30 -10 -43 -19 -16 -28 -39 -15 -39 26 0 44 24 44 58 0 46 -38 88 -89 98
l-33 7 21 -41 c14 -27 19 -51 15 -70 -3 -16 -1 -40 6 -52 l12 -23 -92 6 c-70
4 -105 12 -145 31 -65 32 -83 34 -31 2 l38 -23 -40 -16 c-22 -9 -43 -21 -47
-27 -3 -5 -11 -10 -17 -10 -6 0 -4 8 5 18 23 25 21 32 -5 33 -17 1 -19 2 -5 6
24 6 21 27 -5 46 -20 14 -21 18 -8 26 8 6 34 13 57 17 38 5 83 34 55 34 -6 0
-14 -5 -17 -11 -4 -6 -19 -9 -33 -8 -15 2 -41 -5 -59 -14 -17 -9 -38 -14 -47
-11 -8 3 -37 -5 -65 -19 -55 -26 -69 -23 -45 11 9 14 31 24 57 29 37 6 39 7
19 16 -27 12 -39 46 -21 58 7 4 10 11 7 15 -4 4 -15 -7 -25 -24z m-301 -106
c19 18 19 18 16 -21 -2 -33 -7 -41 -25 -43 -27 -4 -30 13 -5 27 16 10 16 10
-1 11 -11 0 -21 -9 -24 -20 -6 -24 -35 -26 -53 -5 -19 23 -4 45 30 45 16 0 29
3 29 8 -3 20 4 24 8 4 4 -23 5 -23 25 -6z m1038 -40 c0 -38 -90 -71 -128 -47
-17 10 1 26 54 45 51 19 74 19 74 2z m-1219 -60 c14 -16 10 -26 -10 -26 -23 0
-32 30 -18 56 11 18 11 18 15 -1 2 -11 8 -24 13 -29z m43 38 c20 -8 21 -40 1
-48 -22 -8 -49 23 -34 40 13 16 12 16 33 8z m52 -46 c-9 -12 -16 -30 -16 -40
0 -10 -6 -18 -14 -18 -7 0 -19 -7 -26 -16 -20 -23 -64 -14 -68 15 -4 23 -2 24
44 17 37 -5 45 -3 36 6 -9 9 -6 17 11 34 30 30 54 32 33 2z m94 -2 c0 -13 -7
-30 -16 -37 -9 -7 -20 -24 -25 -37 -13 -34 -33 -22 -37 23 -3 31 1 42 20 57
33 25 58 23 58 -6z m-237 -40 c-3 -13 0 -33 6 -44 7 -14 8 -23 1 -27 -5 -3
-10 -19 -10 -36 0 -22 -5 -29 -20 -29 -26 0 -26 30 0 63 l21 26 -21 11 c-23
12 -25 25 -7 45 19 22 35 18 30 -9z m297 -31 c-18 -19 -26 -22 -32 -13 -15 24
-10 28 46 37 5 0 -1 -10 -14 -24z m-160 -10 c0 -8 -7 -15 -15 -15 -8 0 -15 7
-15 15 0 8 7 15 15 15 8 0 15 -7 15 -15z m-46 -24 c7 -11 -50 -61 -70 -61 -8
0 -14 6 -14 13 1 35 68 74 84 48z"/>
<path d="M5215 4550 c-7 -12 2 -12 30 0 19 8 19 9 -2 9 -12 1 -25 -3 -28 -9z"/>
<path d="M6209 4525 c79 -27 105 -41 56 -30 l-30 6 31 -14 c78 -37 116 -69
139 -119 19 -41 21 -55 13 -79 -11 -31 -65 -79 -89 -79 -8 0 -21 -5 -29 -11
-11 -8 -6 -9 20 -5 25 4 31 3 20 -4 -19 -13 -71 -13 -107 0 l-28 10 24 -20
c30 -25 83 -26 136 0 71 34 95 64 95 122 l0 33 68 3 c37 1 81 3 97 4 17 1 65
-2 108 -6 58 -5 94 -3 140 9 60 15 62 15 109 -9 58 -30 101 -23 66 12 -30 30
157 -1 259 -44 89 -37 166 -139 118 -158 -22 -8 -18 -26 6 -26 21 0 21 -4 16
-65 -4 -57 -3 -64 10 -53 11 9 14 25 10 56 -3 29 -1 42 7 39 6 -2 12 -20 14
-39 4 -42 -27 -78 -65 -78 -13 0 -23 -4 -23 -9 0 -63 121 -66 170 -4 21 28 27
88 10 113 -7 11 -8 2 -4 -27 6 -39 4 -45 -29 -78 -32 -32 -41 -36 -78 -33 -45
3 -68 28 -27 28 33 0 68 39 68 77 0 34 -33 83 -57 83 -12 0 -13 3 -3 15 7 8 9
24 5 37 -6 21 -5 21 20 -6 16 -15 44 -35 63 -43 31 -13 36 -13 51 2 15 15 14
16 -9 15 -57 -5 -87 13 -117 67 -17 31 3 41 28 15 14 -16 27 -20 51 -16 27 4
40 -1 70 -28 37 -33 101 -60 124 -51 20 7 25 34 14 69 -8 25 -8 39 1 56 10 19
8 25 -18 47 -17 15 -32 35 -34 46 -5 24 -44 45 -86 45 -27 0 -33 4 -33 21 0
15 4 19 16 15 14 -5 15 -4 4 9 -7 8 -27 15 -46 15 -18 0 -36 5 -39 10 -10 17
-72 12 -79 -6 -3 -9 -3 -52 0 -95 l7 -79 -26 0 c-14 0 -29 4 -32 10 -27 44
-286 104 -349 80 -27 -10 -28 -11 -12 -35 l17 -25 -50 27 c-28 16 -51 30 -51
33 0 3 14 14 31 24 17 10 28 20 26 22 -3 3 -22 -5 -43 -17 -40 -22 -154 -49
-210 -49 l-32 0 4 63 c2 34 9 75 15 90 7 15 9 30 6 33 -9 10 -86 -35 -98 -57
-20 -38 1 -108 34 -109 16 0 6 30 -14 40 -16 9 -19 17 -14 38 8 32 30 58 54
65 16 4 17 1 4 -35 -7 -22 -11 -49 -8 -59 20 -62 -28 -75 -125 -34 -33 14 -74
25 -92 24 -32 0 -31 -1 13 -14 25 -8 53 -23 63 -34 17 -18 16 -19 -13 -26 -48
-10 -132 45 -109 72 8 10 8 12 -4 8 -9 -4 -31 9 -55 32 -53 51 -126 86 -187
90 l-51 3 74 -25z m1261 -80 c0 -8 5 -15 10 -15 6 0 10 7 10 15 0 8 4 15 10
15 5 0 7 -6 5 -13 -4 -8 5 -12 27 -12 26 0 34 -5 36 -21 5 -33 -21 -47 -73
-40 -45 7 -45 8 -45 47 0 21 5 39 10 39 6 0 10 -7 10 -15z m175 -84 c0 -8 -8
-19 -17 -25 -22 -13 -44 5 -34 29 7 20 51 16 51 -4z m35 -11 c0 -24 -4 -30
-22 -30 -17 0 -19 3 -10 12 7 7 12 20 12 30 0 10 5 18 10 18 6 0 10 -13 10
-30z m-171 -7 c25 -15 31 -24 31 -53 0 -19 -4 -41 -9 -49 -10 -15 -31 -7 -31
13 0 7 -9 21 -20 31 -20 18 -28 75 -11 75 5 0 23 -8 40 -17z m61 3 c0 -7 10
-17 23 -20 21 -6 21 -7 4 -20 -24 -19 -6 -29 29 -16 35 14 54 6 54 -20 0 -16
-6 -20 -35 -20 -19 0 -35 4 -35 9 0 5 -9 13 -20 16 -11 3 -20 15 -20 25 0 11
-10 28 -22 40 l-22 20 22 0 c12 0 22 -6 22 -14z m168 -69 c2 -8 -6 -18 -17
-22 l-21 -6 21 -28 c24 -32 22 -64 -4 -69 -13 -3 -17 3 -17 25 0 16 -5 34 -12
41 -8 8 -8 15 2 27 8 9 10 27 6 46 -6 31 -5 31 17 17 12 -9 23 -22 25 -31z
m-295 -7 c20 0 20 -1 2 -13 -10 -8 -15 -19 -11 -25 15 -24 -1 -11 -24 20 -19
25 -20 30 -6 25 10 -4 27 -7 39 -7z m-1019 -24 c-5 -14 -47 -46 -59 -46 -5 0
57 59 62 60 1 0 0 -6 -3 -14z m1166 -2 c0 -17 -22 -14 -28 4 -2 7 3 12 12 12
9 0 16 -7 16 -16z m80 -34 c21 -21 25 -36 12 -44 -11 -6 -82 41 -82 54 0 18
50 10 70 -10z"/>
<path d="M7475 4410 c-3 -5 1 -10 9 -10 9 0 16 -4 16 -10 0 -5 5 -10 10 -10
17 0 11 19 -9 30 -13 7 -22 7 -26 0z"/>
<path d="M6975 4510 c-3 -5 1 -10 10 -10 9 0 13 5 10 10 -3 6 -8 10 -10 10 -2
0 -7 -4 -10 -10z"/>
<path d="M2975 4455 c-37 -23 -38 -24 -14 -25 30 0 63 22 58 38 -3 8 -18 3
-44 -13z"/>
<path d="M5121 4398 c-5 -13 -21 -30 -35 -38 -15 -7 -29 -24 -32 -37 -4 -13
-12 -23 -19 -23 -7 0 -18 -7 -25 -15 -7 -8 -21 -15 -31 -15 -22 0 -35 -18 -22
-31 5 -5 27 -12 49 -15 38 -5 38 -4 13 8 -26 13 -26 13 -8 32 17 17 19 18 19
3 0 -9 5 -17 10 -17 6 0 10 9 10 20 0 11 5 20 10 20 6 0 10 8 10 18 0 10 17
33 39 50 35 28 40 30 60 16 41 -29 18 -86 -47 -118 -27 -14 -31 -20 -22 -36
14 -25 13 -37 -2 -22 -7 7 -18 12 -26 12 -12 0 -12 -3 -2 -15 30 -36 91 -23
70 15 -7 13 -2 24 21 46 37 35 61 78 53 97 -4 12 -37 40 -72 61 -8 5 -15 -1
-21 -16z"/>
<path d="M6045 4379 c-44 -39 -40 -68 18 -121 34 -31 38 -40 28 -52 -16 -20
-6 -36 23 -36 23 0 46 17 46 34 0 6 -5 5 -12 -2 -7 -7 -18 -12 -25 -12 -10 0
-10 6 3 25 15 23 15 24 -10 31 -32 8 -76 58 -76 87 0 12 9 28 20 35 17 10 26
8 60 -14 23 -16 40 -35 40 -46 0 -10 9 -28 20 -40 19 -21 20 -21 20 -2 0 17 3
16 20 -6 l19 -25 -27 -5 c-25 -5 -26 -6 -5 -12 24 -6 64 10 71 30 2 7 -5 12
-20 12 -13 0 -29 9 -35 19 -8 13 -19 18 -34 14 -18 -5 -20 -3 -14 16 5 17 0
25 -25 39 -17 9 -33 27 -36 40 -8 30 -27 28 -69 -9z"/>
<path d="M4063 4274 c-24 -14 -43 -30 -43 -35 0 -6 -12 -21 -27 -34 -27 -23
-27 -25 -12 -52 21 -38 41 -75 49 -93 4 -8 18 -17 31 -18 13 -2 28 -8 33 -13
13 -12 53 -11 76 1 10 6 21 6 24 1 5 -7 103 12 114 23 2 3 5 17 5 31 0 18 7
30 23 37 24 11 27 18 39 90 6 36 5 37 -35 49 -22 7 -45 18 -51 26 -15 18 -76
17 -86 -2 -8 -14 -27 -12 -83 9 -8 3 -34 -6 -57 -20z m57 -9 c-7 -8 -19 -15
-26 -15 -8 0 -17 -14 -21 -30 -3 -19 -16 -37 -32 -46 l-26 -15 32 6 c44 9 77
-10 63 -35 -5 -10 -10 -25 -10 -32 1 -7 8 1 17 17 10 18 18 25 21 17 3 -10 7
-9 16 3 12 16 46 12 46 -6 0 -6 14 6 31 26 17 19 41 35 53 35 16 0 18 2 7 9
-23 15 -5 41 29 41 28 0 30 -2 30 -38 0 -21 -6 -47 -14 -57 -12 -17 -18 -18
-40 -7 -30 14 -32 10 -10 -23 23 -35 12 -51 -37 -59 -48 -8 -61 1 -61 38 0 51
-30 24 -32 -28 -1 -34 -7 -35 -68 -14 -41 14 -47 31 -21 60 22 24 9 35 -22 18
-28 -15 -26 -16 -43 23 -11 27 -10 31 20 60 41 39 79 65 97 66 11 1 11 -2 1
-14z m158 -4 c3 -10 -2 -11 -19 -6 -39 12 -48 27 -15 23 16 -2 31 -9 34 -17z
m-53 -13 c29 -13 32 -30 8 -53 -24 -25 -64 -37 -99 -30 -42 7 -49 29 -22 66
24 32 66 39 113 17z"/>
<path d="M6960 4293 c-8 -3 -19 -12 -23 -19 -4 -8 -18 -14 -31 -14 -41 0 -54
-20 -47 -75 5 -42 11 -52 34 -63 19 -9 26 -19 23 -29 -15 -38 24 -60 115 -67
19 -1 40 -5 45 -9 6 -3 37 2 70 12 47 14 60 22 62 40 2 12 14 38 28 58 13 20
24 40 24 46 0 14 -69 80 -107 102 -28 16 -37 17 -73 6 -34 -10 -43 -10 -56 4
-16 15 -37 18 -64 8z m29 -39 c-24 -12 -39 -10 -39 6 0 11 30 18 49 12 9 -4 6
-9 -10 -18z m201 -31 c0 -7 10 -18 23 -24 12 -6 23 -13 25 -14 1 -1 -5 -19
-13 -39 -16 -37 -16 -38 -41 -21 -33 21 -40 14 -19 -19 20 -30 14 -56 -13 -56
-10 0 -23 -5 -29 -11 -21 -21 -48 -6 -53 30 -3 19 -11 37 -19 39 -9 3 -12 0
-8 -10 3 -9 -1 -24 -8 -35 -11 -16 -21 -18 -57 -14 -49 7 -59 27 -33 67 16 24
15 24 -10 18 -35 -9 -55 11 -55 57 0 43 11 54 45 45 19 -5 23 -11 19 -31 -3
-18 -1 -23 9 -19 8 3 27 -11 44 -31 18 -21 34 -32 38 -26 10 18 45 13 46 -6 0
-13 2 -14 6 -4 4 11 10 8 24 -10 10 -13 19 -19 19 -12 0 6 -4 15 -10 18 -34
21 25 64 61 44 31 -16 34 -4 4 15 -14 9 -25 25 -25 35 0 10 -11 26 -25 35 -41
27 -28 39 15 14 22 -13 40 -28 40 -35z m-77 9 c32 -33 34 -48 8 -62 -34 -18
-88 -12 -117 13 -34 29 -27 53 18 66 52 15 63 13 91 -17z"/>
<path d="M3690 4106 c-11 -31 -12 -51 -4 -83 10 -38 22 -26 14 13 -5 21 -4 47
1 62 5 13 7 27 5 30 -3 3 -10 -7 -16 -22z"/>
<path d="M7525 4060 c0 -35 4 -59 10 -57 15 5 18 80 3 100 -11 15 -13 9 -13
-43z"/>
<path d="M3310 3629 c-182 -16 -468 -31 -587 -30 -46 1 -83 -3 -83 -7 0 -5
-13 -7 -29 -4 -28 4 -98 -24 -87 -35 3 -3 22 -2 43 2 21 4 110 9 198 11 349 8
475 13 492 22 10 6 91 8 188 5 94 -3 186 -4 205 -4 55 1 131 0 180 -4 47 -4
337 -17 380 -17 14 0 33 -4 43 -10 11 -5 87 -12 170 -14 84 -3 224 -11 312
-19 88 -8 212 -16 275 -18 63 -3 147 -8 185 -11 39 -3 104 -8 145 -11 41 -2
91 -7 110 -10 19 -3 50 -6 69 -5 19 0 44 -6 55 -13 30 -20 157 -37 261 -36 97
2 347 -9 353 -15 1 -2 19 0 40 5 22 5 41 4 48 -2 7 -5 65 -12 130 -14 66 -3
162 -7 214 -10 52 -4 138 -8 190 -10 52 -3 140 -7 195 -11 174 -10 405 -7 420
6 8 7 47 12 90 12 41 0 75 4 75 8 0 4 28 11 63 14 34 4 76 8 92 10 17 2 69 9
118 14 48 6 94 9 101 6 8 -3 33 0 57 6 24 7 84 14 133 16 52 3 103 12 125 21
27 13 73 17 186 19 191 4 208 4 275 -1 30 -2 80 3 112 11 31 8 63 12 71 8 8
-3 18 -1 21 5 4 6 13 8 20 5 7 -3 33 2 57 10 28 10 47 12 55 6 15 -14 144 19
144 36 0 17 -65 21 -155 11 -99 -12 -207 -18 -380 -22 -82 -2 -170 -4 -195 -5
-25 0 -72 3 -105 8 -33 5 -73 6 -88 1 -16 -5 -70 -6 -121 -2 -107 7 -101 7
-237 0 -59 -3 -116 -10 -127 -16 -11 -6 -27 -8 -35 -5 -8 3 -42 -2 -75 -10
-33 -9 -77 -16 -98 -16 -21 0 -51 -4 -68 -9 -44 -13 -166 -33 -198 -32 -15 0
-45 -6 -65 -13 -25 -8 -73 -11 -138 -9 -55 2 -116 4 -136 4 -19 -1 -50 4 -69
9 -20 6 -38 6 -45 0 -10 -8 -63 -11 -200 -11 -27 0 -51 5 -53 11 -2 5 -8 7
-14 4 -11 -7 -123 -6 -233 2 -38 2 -85 5 -102 6 -18 1 -33 5 -33 9 0 4 -13 4
-28 -1 -16 -4 -55 -6 -88 -4 -188 10 -258 14 -277 19 -12 2 -65 7 -117 11 -52
3 -113 8 -135 10 -22 2 -73 5 -113 8 -40 3 -114 10 -165 17 -51 6 -202 13
-337 15 -135 2 -263 6 -285 8 -34 4 -294 16 -360 17 -11 1 -49 5 -85 9 -83 11
-298 22 -515 25 -93 2 -210 5 -260 8 -49 2 -128 0 -175 -4z"/>
</g>
</svg>
